<?xml version="1.0" encoding="utf-8"?>
<!-- Generator: Adobe Illustrator 18.1.1, SVG Export Plug-In . SVG Version: 6.00 Build 0)  -->
<svg version="1.1" id="Capa_1" xmlns="http://www.w3.org/2000/svg" xmlns:xlink="http://www.w3.org/1999/xlink" x="0px" y="0px"
	 viewBox="0 0 1400 980" enable-background="new 0 0 1400 980" xml:space="preserve">
<path fill="#444242" d="M466.2,208.1h0.2c1.3-2.1,2.1-3.3,2.4-3.6c12.7-12.1,19.7-18.9,21-20.2l33.2-28.6l34.9-30.6
	c1.2-1,5.1-4.9,11.9-11.5c3.5-3.4,6.4-6.2,8.9-8.3c-0.1-1,0.2-1.9,1.1-2.5c0.6-0.3,1.2-0.3,2,0l0.4-0.4c1.2-0.9,2.2-0.7,3,0.4
	c0.9,1.2,0.7,2.2-0.4,3.1l-0.7,0.4c2.9,6.3,6.4,14.7,10.6,25.2c2.7,6.9,4.9,12.6,6.5,17.1c0.9,2.6,1.5,4.6,2,6.1
	c0.3,0.9,0.5,1.7,0.6,2.2c0.1,0.9,0.1,1.6,0,2c-0.3,0.9-0.9,1.9-1.7,2.9l-2.8,2.2c-1.9,1.3-4.5,3-7.8,4.9l-8,4.5
	c-2.6,1.5-4.2,2.5-4.8,2.9c-2,1.5-18.8,12.2-50.3,32.2l-29.5,18.9c-4.3,2.8-7.6,5.1-9.8,6.7c-1.3,0.9-2.2,1.7-2.8,2.2l-0.4,0.2
	c0.4,0.6,1.2,1.7,2.2,3.4c1.7,2.7,4.1,6.1,7.2,10.1c1.4,2.1,3.2,4.4,5.2,7l5,6.7l2.6,3.6l0.4,0.5l0.7,0.7c1.2,1.5,1.2,2.9,0.2,4.3
	c-0.4,0.3-0.9,0.5-1.3,0.7h-0.7h-0.6c-0.3-0.2-0.7-0.3-1.3-0.4c-0.7-0.2-1.8-0.4-3.3-0.9l-5-1.6c-3.5-1.2-10.9-2.2-22.3-3.1
	l-29.3-2.2c-7.7-0.8-13.7-1.4-18.2-2c-2.6-0.4-4.7-0.8-6.3-1.1c-0.9-0.2-1.6-0.3-2.2-0.4c-0.9-0.3-1.5-0.7-2-1.1
	c-0.6-0.4-0.9-1.1-0.9-2c0-0.6,0.1-1.2,0.2-1.8c0.1-0.9,0.5-2.1,1.1-3.6c0.9-2.5,2.2-5.9,4.1-10.1l7.8-16.2
	c0.9-1.9,2.5-5.9,4.8-11.9c2-5.1,3.8-9.1,5.2-11.9c1-1.8,2.7-6.1,5.2-12.8l2.2-6.5c0.4-0.9,0.7-1.6,0.9-2c0.1-0.3,0.3-0.6,0.3-0.8
	c0.1-0.2,0.1-0.4,0.1-0.6l0.4-0.2c0.3-0.3,0.6-0.5,0.9-0.7c1.2-0.3,2.1,0,2.8,0.9c0.4,0.3,0.7,0.8,0.9,1.6c0.1,0.2,0.3,0.5,0.4,1.1
	l0.2,0.4l8,15.7l3.9,7.6L466.2,208.1z M599.5,158.2V158c-0.1-0.4-0.3-1-0.4-1.8c-0.4-1.5-1.1-3.4-2-5.8c-1.3-3.6-3.5-9.2-6.5-16.9
	c-4-10.2-7.4-18.2-10-24.1l-8,7.4c-6.7,6.7-10.6,10.6-11.7,11.5l-35.1,30.8l-33,28.8c-1.4,1.2-8.5,7.8-21,19.8
	c-0.1,0.2-0.8,1.1-2,2.9c-1.3,2.1-2.8,3.1-4.6,2.9l-1.3-0.7c-0.1,0-0.3-0.1-0.3-0.2c-0.1-0.1-0.1-0.3-0.1-0.4
	c-0.1-0.1-0.3-0.4-0.4-0.7l-1.3-2.5l-4.1-7.4l-7.4-14.8l-2,5.2c-2.5,6.9-4.2,11.4-5.2,13.5c-1.4,2.6-3.2,6.4-5.2,11.5
	c-2.3,6-3.9,10-4.8,11.9l-7.6,16.4c-1.9,4.2-3.3,7.4-4.1,9.7c-0.4,1-0.7,1.9-0.9,2.7c0.3,0.1,0.7,0.3,1.3,0.5
	c1.4,0.3,3.5,0.6,6.1,0.9c4.3,0.6,10.3,1.3,17.8,2l29.5,2.2c11.3,0.7,19,1.8,23.2,3.1l4.1,1.6l-10.8-14.8l-7.4-10.3
	c-1-1.5-1.7-2.7-2.2-3.6c-0.3-0.6-0.5-1.1-0.7-1.6c-0.3-0.9-0.3-1.7,0-2.5c0.3-0.4,0.9-1.1,2-2c0.7-0.6,1.7-1.3,3-2.2
	c2.3-1.8,5.6-4.1,10-7L526,205c31.5-19.9,48.2-30.6,50.1-31.9c0.7-0.6,2.5-1.6,5.4-3.1l8-4.5l7.2-4.7c1-0.7,1.8-1.4,2.4-2
	L599.5,158.2z"/>
<path fill="#444242" d="M813.9,288c10.5-22.2,23.7-43.7,39.4-64.4c15.7-20.8,34.2-42.9,55.6-66.5l12.6-13l4.6-4.7l8.9-8.5l9.3-8.5
	c3.6-3.1,6.7-5.6,9.2-7.3c2.5-1.7,4.3-2.5,5.3-2.4c0.1,0,1.7,2.6,4.8,7.9c0.3-7,0.7-14.2,1.3-21.4c0-0.7,0.2-2.1,0.7-4.2
	c0.4-2,0.7-3.7,0.7-5.1c0-1.3-0.4-2.5-1.3-3.4c-2.9-3.1-19,1-48.4,12.4c3.2,0,7.8,0,13.9,0.1c6.1,0.1,10.6,0.1,13.4,0.1l-12.6,13
	L877,165l-22.5,26.1l-20.2,25.6c-8.1,10.3-15.1,20.2-21.1,29.7c-6,9.4-11.2,18.8-15.5,28.1l-12.6,13c4.3-9.3,9.5-18.7,15.6-28.2
	c6.1-9.5,13.2-19.5,21.2-30l20.4-25.4l22.6-26.3l3.9-4.5l12.6-13l49-47.9h-13c-5.9,0-11.1-0.1-15.5-0.3c-4.4-0.2-8.7-0.6-12.9-1
	l12.6-13c6.2-3.7,19.8-9.4,40.9-17c21-7.6,32.7-10,35-7.3c0.9,0.9,1.3,2,1.3,3.4c0,1.3-0.2,3-0.7,5.1c-0.4,2-0.6,3.4-0.6,4.2
	c-1.4,17.5-2.2,35.5-2.2,53.7l-12.6,13c-1.2-1.6-3.1-4.7-5.9-9.2c-2.7-4.5-5.2-8.6-7.3-12.4c-2.1-3.7-3.2-5.6-3.4-5.6
	c-2.9-0.6-12.9,7.6-30.1,24.5c-22.3,24.7-41.4,48.3-57.5,70.6c-16,22.3-29,45.5-38.8,69.5l-12.6,13c-1.9-0.8-3.8-1.5-5.6-2.1
	c-1.9-0.7-3-1.1-3.3-1.1c-0.3-0.1-0.9-0.4-2-1l-1.7-0.9c-0.1,0-1-0.6-2.6-1.8l-4.6-3.1l12.6-13l5,3.6c2.5,1.6,5,2.9,7.6,3.8
	C813.2,287.8,813.7,288,813.9,288z"/>
<path fill="#444242" d="M87.3,535.8c2.2-3.7,4.7-7.6,7.7-11.5c3-3.9,6.5-8.3,10.7-13.3c4.3-4.8,7.2-8.1,8.7-9.9
	c24.6-30.6,43.3-52.5,56.2-65.9c12.4-12.9,27.9-28.2,46.4-45.9l8-7.9l10-9.4c2.7-2.7,5.5-5.2,8.2-7.4l3-1.8c0.3-0.1,0.5-0.3,0.7-0.5
	c-0.1-0.4-0.6-1.1-1.3-2c-1-1.2-2.5-2.6-4.3-4.3l-4.3-3.8c-0.7-0.6-1.2-1-1.5-1.3c-0.3-0.4-0.5-0.7-0.7-0.9c-0.4-0.7-0.6-1.4-0.4-2
	c0.3-1,1-1.8,2.2-2.2c0.6-0.1,1.3-0.2,2.2-0.2c1.2,0,2.8,0.1,5,0.2c0.4,0.2,2.2,0.4,5.2,0.7c2,0.2,3.3,0.2,3.9,0.2
	c9.8,0,16.5-0.2,20.2-0.7l0.9-0.2c0.9-0.1,1.5-0.2,2-0.2c0.7-0.1,1.4-0.2,2-0.2c0.3-0.1,0.6-0.1,0.9,0c0.6,0,1.1,0.2,1.5,0.4
	c0.6,0.4,0.9,1.1,1.1,1.8v1.3c-0.1,0.6-0.3,1.5-0.4,2.7c-0.3,1.5-0.9,4.1-1.7,7.9c-2.2,8.2-3.3,13.8-3.5,16.6
	c-0.4,5.7-0.8,11.5-1.1,17.3c0,0.2-0.1,1.8-0.2,4.9v1.3v0.2v0.4c0,0.2-0.1,0.2-0.2,0.2c0,0.2-0.1,0.3-0.2,0.5
	c-0.3,0.6-0.7,1-1.3,1.1c-0.9,0.2-1.7-0.1-2.4-0.9c-0.3-0.3-0.6-0.7-0.9-1.1c-0.6-0.7-1.2-1.9-2-3.4c-0.3-0.4-1.9-3.7-4.8-9.7
	c-2.2-4.2-3.8-7.2-5-9c-0.6-1.2-1.2-2-1.7-2.5c-1.7,1.1-4,3-6.9,5.8c-2.9,2.8-6.4,6.6-10.4,11.2l-9.5,11.5l-7.8,9.4
	c-29.3,32.1-56.6,63.8-81.7,95.1l-3.3,4.3l-6.7,9.2l-7.6,9.9l-11.1,14.6c-1.7,2.1-3.1,3.7-4.1,4.7c-0.4,0.7-0.9,1.3-1.3,1.6
	c-0.3,0.1-0.5,0.3-0.6,0.4c-0.3,0.3-0.7,0.5-1.1,0.7c-0.7,0.1-1.7,0-2.8-0.4c-0.6-0.3-1.4-0.8-2.4-1.3c-1.7-1.1-3.7-2.5-5.9-4.3
	c-4.9-3.9-8-6.7-9.3-8.5c-0.9-1.2-0.7-2.2,0.4-3.1c1.2-0.9,2.2-0.8,3,0.5c0.1,0.1,0.3,0.4,0.4,0.7C86.9,537,87,536.4,87.3,535.8z
	 M241,350.2l3,2.5c2,1.8,3.6,3.4,4.8,4.7c1.6,2,2.4,3.7,2.4,5.2c-0.1,1.7-1.1,3-2.8,4c-0.4,0.3-0.8,0.5-1.2,0.7
	c-0.4,0.2-0.7,0.3-0.9,0.4c-0.2,0.2-0.4,0.3-0.5,0.4l-8.2,7.4l-9.5,9.2l-8,7.6l-46.4,45.9c-10.8,11.4-28.3,31.8-52.3,61.2l-3.5,4.3
	c-1.7,2.2-4.7,5.7-8.9,10.5c-4.2,4.7-7.7,9-10.5,12.7c-2.8,3.7-5.2,7.4-7.3,11c-0.6,0.9-1.4,1.3-2.4,1.1l6.3,5.4l5.4,4
	c0.9,0.5,1.5,0.7,2,0.9c0.3-0.2,0.7-0.4,1.1-0.9c0.6-0.6,1.8-2.2,3.7-4.7l11.1-14.4l7.8-10.3l6.7-9c1.7-2.2,2.7-3.6,3-4
	c25.3-31.5,52.7-63.3,82.2-95.6c1.2-1.2,3.8-4.3,7.8-9.2l9.3-11.5c4.2-4.8,7.7-8.7,10.6-11.7c3.8-3.7,6.8-6.1,9.1-7
	c0.9-0.4,1.7-0.4,2.6,0c0.4,0.3,0.9,0.7,1.3,1.1c0.7,0.8,1.5,1.9,2.4,3.4c1.3,2,3,5.1,5.2,9.4l3.7,7.9c0.3-5.8,0.7-11.6,1.1-17.3
	c0.3-2.7,1.4-8.5,3.5-17.3c0.9-3.7,1.4-6.3,1.7-7.6c0.1-0.3,0.2-0.6,0.2-0.9h-0.2c-0.4,0.2-1,0.3-1.7,0.4c-0.6,0.2-1,0.2-1.3,0.2
	c-3.6,0.4-10.5,0.7-20.6,0.7c-0.7,0-2.2-0.1-4.3-0.2c-3.2-0.4-4.9-0.7-5.2-0.7H241z"/>
<path fill="#444242" d="M1183.2,165.3c0.3,0.2,0.8,0.2,1.5,0.2c0.9,0.2,2.2,0.2,3.9,0c2.6-0.1,6.7-0.5,12.4-1.1
	c4.5-0.4,16.6-2.2,36.4-5.2c17.1-2.4,30.1-4,39.2-4.9c9.1-0.9,16.2-1.2,21.2-0.9c0.3-1,0.9-1.6,2-1.8c1.4-0.1,2.2,0.5,2.4,2v0.2
	c0.6,0,1.2,0.1,1.7,0.2c1.4,0.4,2,1.4,1.6,2.8c-0.4,1.4-1.2,2-2.5,1.7l-0.4-0.2c0.4,4.2,1.1,12.4,2,24.7c0.9,12.7,1.7,22.5,2.6,29.2
	c0,0.4,0.9,4.2,2.6,11.2c0.7,3.1,1.2,5.5,1.5,7c0.3,1.1,0.4,1.9,0.4,2.5c0.1,0.3,0.2,0.5,0.2,0.7v0.4c0,0.5-0.1,0.8-0.2,1.1
	c-0.6,1.3-1.6,2-3,1.8c-0.6,0-1.3-0.3-2.2-0.9c-0.1,0-0.4-0.1-0.8-0.4c-0.4-0.3-0.6-0.4-0.8-0.4c-0.4-0.3-0.7-0.4-0.9-0.4
	c-6.9-2.2-14.3-4.2-22.1-5.8c-9.3-1.9-18-3.5-26.2-4.7c-8.7-1.2-19.8-2.5-33.4-4l-26-3.1c-6.9-0.9-11.2-1.6-12.8-2v0.4
	c0.1,2.2,0.7,6.4,1.7,12.6c0.9,5.7,1.4,10,1.7,12.8l0.7,4c0.4,2.4,0.6,4,0.6,4.7c0.3,1.8,0.4,3.2,0.4,4.3c-0.1,0.9-0.4,1.6-0.7,2
	c-0.6,1.2-1.5,1.6-2.8,1.3c-0.4-0.2-0.9-0.4-1.5-0.9l-1.1-1.1l-3-3.1l-7.8-9.7l-5.4-6.7l-4.8-6.3c-1.2-1.6-2-2.6-2.4-2.9l-17.3-21.1
	c-4.2-5.2-7.5-9.6-10-13c-1.4-2.1-2.5-3.9-3.3-5.4c-1-1.8-1.6-3.2-1.7-4.3c0-0.6,0.1-1.3,0.4-2l0.9-0.9c0.4-0.6,1.1-1.3,2-2
	c0.4-0.3,0.9-0.6,1.3-1c0.4-0.4,0.8-0.7,1.1-0.9c0.3-0.2,0.5-0.4,0.6-0.6c3.2-2.7,9.9-9.1,20.2-19.3l19.9-19.8
	c4.9-4.8,9-8.6,12.1-11.5c1.9-1.8,3.5-3.1,4.8-4c1.4-1.2,2.6-1.9,3.5-2.2c0.9-0.1,1.7,0,2.4,0.4c0.9,0.8,1.2,1.7,0.9,2.7
	c-0.1,0.4-0.5,1.1-1.1,2c-0.3,0.3-0.7,0.8-1.3,1.6c-0.4,0.6-0.7,1.1-0.9,1.3l-2.6,3.8c-1.4,2-2.5,3.5-3,4.7
	c-1.3,2.6-2.7,8.1-4.3,16.6c-0.7,4-1.1,7.4-1.1,10.1c0,1.3,0.1,2.4,0.2,3.1C1183.1,165,1183.2,165.2,1183.2,165.3z M1307,231.2
	l-1.5-6.5c-1.6-7.2-2.5-11.2-2.6-11.9c-0.9-6.7-1.7-16.6-2.6-29.5c-0.9-12.9-1.5-21.4-2-25.4c-4.9-0.3-12,0-21.2,0.9
	c-6.2,0.4-19.2,2.1-39,4.9l-36.4,5.2c-5.5,0.6-9.8,1-13,1.1c-1.7,0.2-3.2,0.2-4.3,0c-1.4-0.1-2.5-0.4-3.3-0.7
	c-1-0.6-1.7-1.7-2.2-3.4c-0.3-1.2-0.4-2.6-0.4-4.3c0-3,0.4-6.7,1.3-11c1.6-9,3.1-15,4.6-18c0.4-0.6,0.9-1.3,1.5-2.2l-9.5,8.8
	l-19.7,19.8c-10.4,10.3-17.3,16.9-20.6,19.8l-0.7,0.4c-0.3,0.2-0.6,0.4-1.1,0.8c-0.4,0.4-0.8,0.7-1.1,1c-0.7,0.6-1.2,1.1-1.5,1.6
	c0.1,0.6,0.4,1.3,0.9,2c0.7,1.3,1.7,3,3,4.9c2.5,3.5,5.8,7.7,10,12.8l17.3,20.9c0.3,0.4,1.1,1.5,2.4,3.1l4.8,6.3l5.4,6.7l7.6,9.4
	l1.3,1.6v-0.2l-0.9-4.5c-0.3-2.1-0.5-3.6-0.7-4.5c-0.3-2.7-0.9-6.9-1.7-12.6c-0.9-6-1.4-10.3-1.7-12.8c0-0.1,0-0.3-0.1-0.4
	c-0.1-0.1-0.2-0.4-0.3-0.8c-0.1-0.4-0.3-0.7-0.4-1c-0.3-0.9-0.4-1.6-0.2-2.2c0-1.3,0.6-2.2,1.7-2.7c0.9-0.4,1.7-0.4,2.6,0.2
	c0.3,0.2,0.6,0.4,0.9,0.9l0.4,0.5c1.6,0.6,5.9,1.3,13,2.2l26.5,3.1c13.6,1.5,24.8,2.9,33.5,4.2c8.7,1.3,17.5,2.8,26.1,4.6
	c7.7,1.7,15.2,3.6,22.5,5.8C1305.9,230.5,1306.4,230.8,1307,231.2z"/>
<path fill="#444242" d="M75.7,214.3c0.6-1.6,1.4-3.3,2.4-4.8c1-1.6,2-2.9,2.8-4c0.9-1.1,2.1-2.5,3.7-4.2l3.5-3.1l3.9-3.6
	c1.7-1.5,2.7-2.4,3-2.7c17.3-15.3,36.3-28.6,56.8-39.8c20.5-11.2,41.4-19.3,62.7-24.3l-18.2-8.3c-0.3-0.1-0.9-0.4-1.7-0.7l-3.7-1.1
	c-1.4-0.6-2.7-1.1-3.7-1.6c-2.3-0.9-4.1-1.6-5.4-2c-0.9-0.5-1.5-0.7-2-0.9c-0.4-0.1-0.8-0.4-1.1-0.7c-0.3-0.1-0.6-0.4-0.9-0.7
	c-0.1-0.1-0.3-0.3-0.4-0.6c-0.1-0.2-0.4-0.7-0.8-1.5c-0.4-0.7-0.3-1.6,0.1-2.5c0.7-3.1,2.9-4.9,6.5-5.2c0.6-0.1,1.4-0.2,2.4-0.2h1.5
	c2.6-0.3,6.2-0.4,10.8-0.2c4.9,0.3,8.2,0.4,10,0.2l25.4-1.8c12.4-0.7,22-1.3,28.8-1.6c1.3,0,4.1,0,8.5-0.1c4.3-0.1,7.7-0.2,10-0.3
	h0.2c0.1-0.1,0.4-0.3,0.7-0.4c0.3-0.1,0.6-0.2,0.9-0.2c1-0.4,2-0.7,3-0.7c2.3,0.2,3.9,1.4,4.8,3.8c0.3,1.1,0.3,2.2,0,3.6
	c-0.1,0.6-0.3,1.3-0.4,2c-0.4,1.2-1.1,2.8-2,4.7c-1.2,2.9-2.2,5.3-3,7.2l-7.8,16.6l-6.7,15.3l-7.4,17.1l-6.9,16.4
	c-0.3,0.8-1.6,4.4-3.9,10.8c-0.9,2.6-1.6,4.5-2.2,5.8c-0.3,0.9-0.6,1.6-0.9,2c-0.1,0.4-0.4,0.8-0.7,1.1c-0.6,1.1-1.4,1.7-2.6,2
	c-2,0.6-3.8,0.2-5.4-1.3c-0.7-0.6-1.3-1.5-1.7-2.7l-0.9-3.6c-1.2-4.8-2.5-12-3.9-21.6c-0.9-6.6-1.6-11.3-2.2-14.2l-16.9,14.8
	c-10.1,8.8-17.6,15.7-22.3,20.5c-10.4,10.3-22.3,25.3-35.6,45l-13.4,20.9l-6.3,9.7c-0.9,1.5-1.6,2.6-2.2,3.4l-1.1,1.1
	c-0.3,0.3-0.6,0.5-0.9,0.7c-1,0.7-2.1,1-3.3,0.9c-2.2-0.3-3.6-1.6-4.3-3.8c-0.4-0.9-0.6-2-0.4-3.4c0-0.3,0.1-1,0.2-2V269
	c-1.2-19.2-1.2-33.7-0.2-43.6c0-0.2,0-0.5,0.1-1.1c0.1-0.6,0.2-1.3,0.3-2.1c0.1-0.8,0.2-1.6,0.2-2.4v-0.4l-3,0.4
	c-4,0.5-9.5,1.1-16.3,2c-13.9,1.6-23.1,2.8-27.8,3.6c-1.3,0.1-2.5-0.2-3.5-0.9c-1-0.8-1.6-1.8-1.7-3.1c-0.3-2,0.4-3.4,2-4.5
	C75.2,215.9,75.3,215.1,75.7,214.3z M200.9,111.3c11,4.8,20.5,9.3,28.6,13.5c1.2,0.6,2,1.5,2.4,2.7c0.3,0.5,0.5,1.1,0.7,1.8
	c0.1,1.2-0.1,2.3-0.9,3.4c-0.7,1.1-1.7,1.7-3,2c-22.3,3.6-44.4,11.1-66.6,22.5c-22.1,11.4-42.4,25.3-60.9,41.8
	c-0.6,0.4-1.6,1.4-3,2.7l-3,2.7l-2.6,2.2c-1.2,1.1-2.1,2-2.7,2.7c-0.7,0.8-1.3,1.6-2.1,2.6c-0.7,1-1.4,1.9-2,2.8l19.5-2.5
	c8.2-1,13.7-1.7,16.5-2c2.3-0.3,4.1-0.5,5.4-0.7h1.7h0.9h0.7c1,0.2,1.8,0.6,2.4,1.4c0.9,0.8,1.4,1.7,1.7,2.9
	c0.1,0.8,0.2,1.5,0.2,2.2c0.1,1.2,0.1,2.6,0,4.3c0,0.7-0.1,1.6-0.2,2.5c-0.1,0.9-0.3,1.6-0.4,2.2v1.1c-1,9-1.1,20.6-0.2,34.9l2-3.1
	l13.7-21.1c13.6-20.2,25.7-35.7,36.4-46.3c4.2-4.2,11.9-11.2,23-20.9c10.3-9,17.8-15.7,22.6-20.2c0.9-0.9,1.9-1.3,3.1-1.3
	c1.2,0,2.3,0.5,3.1,1.6c0.9,0.8,1.3,1.8,1.3,3.1v0.2c1.2,4.6,2.5,11.9,3.9,21.8c0.7,5.7,1.4,9.9,2,12.6l2.8-7.9l6.9-16L262,146
	l6.7-15.5l7.8-16.9c0.9-1.5,1.8-3.4,2.8-5.8c-2,0-5,0-8.8,0.1c-3.8,0.1-6.5,0.1-7.9,0.1c-6.8,0.3-16.4,0.8-28.8,1.6l-25.4,1.8
	C206.6,111.5,204,111.5,200.9,111.3z"/>
<path fill="#444242" d="M609.4,458.2c-9.1,4.8-17.8,10.2-26.1,16.1c-8.3,5.9-18.7,14.2-31.1,24.9l-24.3,20.2c-1,0.7-2.1,1-3.4,0.9
	c-1.2-0.2-2.3-0.8-3.1-1.8c-1.3-2-1.3-3.8,0-5.6c-1-1-1.4-2.3-1.3-3.8c1-10.8,1.6-18.9,1.7-24.3c-19.8-1.3-40.8-1.3-63.1,0.2
	c-2.5,0.2-6.5,0.5-12.1,1.1c-5.8,0.4-10.9,0.8-15.4,1.1c-4.5,0.3-8.7,0.4-12.8,0.2c-1,0.8-2.2,1-3.5,0.9c-1-0.1-1.9-0.6-2.6-1.4
	h-0.4c-1.3-0.1-2.3-0.7-3.1-1.7c-0.8-1-1.1-2.1-1-3.5c0.3-2.4,1.6-3.8,3.9-4.3c0.4-4.6,0.4-12.9,0-24.7c-0.4-14.2-0.3-24.7,0.4-31.5
	c0.1-1.3,0.7-2.4,1.7-3.3c1-0.8,2.1-1.2,3.3-1c0.7,0.2,1.4,0.4,2,0.7c13,0.6,30.8,0.8,53.3,0.7c22.6-0.1,40.3-0.1,53.3,0.2
	c-0.4-8.1-0.4-18.3,0-30.6l-0.4-0.4c-1-0.7-1.6-1.8-1.7-3.1c-0.1-1.3,0.2-2.5,1.1-3.4c1.6-2.1,3.5-2.5,5.9-1.1
	c2.3,0.2,3.7,1.3,4.1,3.6l16.7,16c8.8,8.5,15.4,14.7,19.7,18.4l19.5,15.5c8.5,6.4,15.2,11.7,19.9,15.7c1.6,1.3,2.1,3.1,1.5,5.2
	C611.9,456,611,457.3,609.4,458.2z M600.1,452.6l-16.9-13.3c-7.8-6-13.7-10.7-17.8-14.2c-4.3-3.6-11.1-9.9-20.4-18.9l-10.4-10.1
	c-0.3,11.4-0.1,21.2,0.7,29.5c0.1,1.3-0.2,2.5-1.1,3.5c-0.9,1-1.9,1.5-3,1.7c-2.2,0.2-3.7-0.7-4.6-2.7c-10.3-0.3-27.9-0.4-52.9-0.2
	c-25,0.2-42.6,0-52.9-0.5c-0.3,5.3-0.3,13.6,0,25.2c0.4,10.9,0.4,19.4,0,25.4c3.6,0,7.4-0.1,11.5-0.3c4-0.2,8.7-0.6,13.9-1.1
	c5.2-0.5,9.2-0.9,12.1-1c26-1.8,50.7-1.6,73.9,0.7c1.3,0.2,2.3,0.7,3.1,1.7c0.8,1,1.1,2.1,1,3.5c-0.1,1.3-0.7,2.4-1.6,3.3
	c-0.9,0.8-2.1,1.2-3.4,1h-0.4c-0.1,5.7-0.6,12.4-1.3,20.2l15.8-13.5c8.7-7.2,14.9-12.3,18.8-15.3c3.8-3,9.2-7,16.2-11.9
	C587.3,460.2,593.9,456,600.1,452.6z"/>
<path fill="#444242" d="M559.2,689.7c0.7,0.4,3.6,2.1,8.9,5l17.5,9.6c6.2,3.5,11.9,6.9,17.2,10.2c11,6.6,19.6,12.5,25.8,17.6
	c4.2,3.5,7.5,6.8,9.9,9.9c4.4,6,5.9,12,4.6,18c-0.9,3.3-3,6.9-6.3,10.8c-2,2.1-4.5,4.5-7.6,7.4c-4.6,4.3-11.3,10.3-20.2,18l-21.5,18
	c-6.8,5.8-11.1,9.6-12.9,11.5c-3.1,3.1-6.9,4.8-11.6,5c-4.6,0.2-8.6-1.2-12.1-4.2c-3.4-3-5.2-6.7-5.5-11c-0.2-4.3,1.3-8.2,4.6-11.5
	c2.2-2.3,7.2-6.7,14.9-13.3l20.8-17.3c-65.4-2.5-127.5,7.3-186.3,29.4c-4.4,1.7-8.7,1.7-12.9,0c-4.2-1.7-7.2-4.5-8.9-8.7
	c-1.8-4.1-1.8-8.2,0-12.1c1.8-3.9,4.8-6.7,9.2-8.4c62.5-23.5,128.7-34.3,198.5-32.2l-1.3-0.6c-5.3-3.3-11-6.7-17.2-10.2l-16.5-9.3
	c-5.1-2.7-7.9-4.1-8.6-4.3c-4-2.3-6.6-5.5-7.8-9.8c-1.2-4.2-0.6-8.2,1.8-11.9c2.4-3.7,5.9-6.1,10.4-7.3
	C551,686.9,555.2,687.4,559.2,689.7z"/>
<path fill="#444242" d="M912.8,347.5c3.6-0.1,13.3-0.4,28.9-0.7c15.7-0.3,27.8-0.7,36.3-1.1c0.3,0,0.5,0,0.5-0.1
	c0.1-0.1,0.2-0.1,0.4-0.2c0.2-0.1,0.7-0.2,1.3-0.3c0.7-0.1,1.5-0.4,2.7-0.7c7.9-1.9,13.7,0.2,17.3,6.5c2.5,4.4,2.6,8.8,0.4,13.3
	c-0.9,2.1-2.3,4-4.3,5.8l-3,2.7c-8.7,14.7-16.4,32.5-23.2,53.3c-0.9,3-2.7,5.2-5.4,6.6c-2.7,1.4-5.6,1.7-8.5,0.7
	c-2.9-1-5-2.9-6.4-5.7c-1.4-2.8-1.6-5.8-0.5-8.8c3.9-12.1,8.1-23.3,12.6-33.5c-47,27.1-92.4,64.2-136.4,111.3
	c-10.1,10.9-18.6,20.5-25.5,28.6c-6.9,8.1-13,16.6-18.3,25.4c-1.7,2.5-4.1,4.2-7,4.8c-3,0.7-5.7,0.1-8.2-1.6
	c-2.5-1.7-4.1-4.1-4.8-7.2c-0.7-3.1-0.2-6,1.4-8.7c4.2-6.6,9.1-13.5,14.7-20.8c5.6-7.3,10.6-13.4,15-18.3l16.7-18
	c43.8-46.6,88.5-83.7,134-111.1c-15.3,0.3-25.3,0.5-29.9,0.7c-3.2,0.2-5.9-0.9-8-3c-2.2-2.2-3.3-4.9-3.5-8.1c-0.1-3.2,0.8-6,2.9-8.2
	C907.2,348.9,909.8,347.7,912.8,347.5z"/>
<path fill="#444242" d="M1268.2,386.7c4.8-1.9,13.3-5.1,25.6-9.4c7.2-2.5,12.7-4.4,16.5-5.6l6.1-1.8c0.9-0.1,1.6-0.3,2.2-0.4
	c1.6-0.1,3,0,4.1,0.4c1.7,0.9,3,2.4,3.7,4.5c0.3,0.9,0.4,2,0.4,3.4c0,1.7-0.3,3.8-0.9,6.5c-0.7,4.4-2.2,10-4.3,17.1
	c-3.9,13.3-7.6,24.1-11.1,32.4c-0.6,1.5-1.6,2.6-3.1,3.1c-1.5,0.6-3,0.6-4.3,0c-1.4-0.6-2.4-1.7-2.9-3.3c-0.6-1.6-0.6-3,0-4.4
	c3.3-7.9,6.9-18.4,10.8-31.3l0.6-2.9c-22.1,18-46.1,40.9-72,68.6l-2.6,2.7l-4.3,4.7l-4.3,4.7c-2.9,2.9-5.5,5-7.8,6.5
	c-3.8,2.6-7.2,3.5-10.2,2.7c-4.8-1.3-7.9-5.5-9.3-12.4c-0.4-2.7-0.8-7.9-1.1-15.5c-0.1-6.6-0.6-11.4-1.3-14.4
	c-0.7-3.1-1.9-5.1-3.5-5.8c-0.1-0.3-0.8-0.2-2,0.2c-1.6,0.8-3.5,2-5.9,3.8c-2,1.5-5.6,4.9-10.8,10.3c-21.4,21.7-39.2,47-53.6,75.8
	c-0.7,1.3-1.8,2.3-3.3,2.8c-1.4,0.5-2.9,0.4-4.2-0.3c-1.4-0.8-2.3-1.9-2.8-3.4c-0.5-1.5-0.4-3,0.3-4.5
	c14.7-29.8,33.3-56.1,55.7-78.9c5.5-5.5,9.5-9.3,11.9-11.2c3-2.4,5.9-4.1,8.5-5.2c4-1.6,7.7-1.7,10.8-0.2c4.8,2.4,7.9,7,9.5,13.9
	c0.9,3.7,1.4,9.3,1.7,16.6c0.1,7,0.4,11.6,0.9,13.7c0.3,1.3,0.6,2.3,0.9,2.9c0.4-0.1,0.9-0.4,1.5-0.7c1.6-1.2,3.7-3,6.3-5.4l4.1-4.5
	l4.3-4.7c1.2-1.3,1.9-2.2,2.2-2.5c26.5-28.2,51-51.5,73.7-69.9l-7.8,2.7c-11.7,4.2-20.1,7.3-25.2,9.2c-1.4,0.6-2.9,0.6-4.2-0.1
	c-1.4-0.7-2.4-1.8-2.9-3.3c-0.6-1.5-0.5-3,0.1-4.4C1265.7,388.3,1266.7,387.3,1268.2,386.7z"/>
<path fill="#444242" d="M201,664.3c17.8,1.2,33.5,0.7,47.1-1.6c12.7-1.9,20.7-3.2,24.1-3.8c0.1-0.1,0.3-0.2,0.4-0.2l0.9-0.5
	c0.7-0.4,1.2-0.7,1.5-0.7c1.7-0.9,3.3-1.4,4.8-1.4c3.9,0,6.6,1.8,8,5.4c1.4,3.5,1,6.6-1.3,9.4c-0.9,1.2-2.1,2.2-3.7,3.1l-2.4,1.1
	c-3.3,3.5-6,6.4-8,8.8c-11.3,13.9-18.2,30.1-20.8,48.6c-0.3,2.1-1.3,3.8-2.9,5.1c-1.7,1.3-3.5,1.8-5.5,1.5c-2-0.3-3.7-1.3-4.9-3
	c-1.2-1.7-1.7-3.6-1.4-5.7c2-14.4,6.2-27.4,12.6-38.9c-25.7,15.7-49.4,33.4-70.9,53.1c-21.1,19.3-41.8,42.2-62.2,68.6
	c-5.9,7.8-9.7,12.7-11.3,14.8c-2.2,3-4.9,7.3-8.1,12.8c-3.3,5.5-5.7,10.8-7.3,15.7c-0.6,1.9-1.8,3.4-3.6,4.4c-1.8,1-3.7,1.1-5.6,0.4
	c-2-0.7-3.4-2-4.3-3.8c-0.9-1.9-1-3.9-0.3-6c1.9-5.7,4.7-11.8,8.5-18.4c3.8-6.6,6.7-11.4,8.9-14.4l11.5-15.1
	c20.4-26.4,41.6-49.7,63.5-69.9c22-20.2,46.1-38.5,72.4-54.6c-11.9,1.2-25.3,1.3-40.3,0.4c-2-0.1-3.7-1-5.1-2.6
	c-1.4-1.6-2-3.4-1.8-5.5c0.1-2.1,1-3.9,2.5-5.3C197.2,664.8,198.9,664.1,201,664.3z"/>
<path fill="#444242" d="M923.3,639.2c1.4,0.6,11.8,3.1,31,7.4c9.3,2.1,15.5,3.6,18.6,4.5c2.9,0.8,5.1,1.5,6.7,2.2
	c1.2,0.5,2.1,1,2.8,1.6c1.7,1.1,2.9,2.4,3.5,4c0.9,2.4,0.7,5.3-0.6,8.8c-0.7,2.1-1.9,4.6-3.5,7.4c-2.5,4.4-6.1,10.1-11.1,17.3
	l-12.1,17.3c-4.2,6-6.6,9.5-7.2,10.6c-1,1.5-2.4,2.5-4.1,2.9c-1.7,0.4-3.4,0.2-4.9-0.8c-1.5-1-2.5-2.4-2.9-4.2
	c-0.4-1.8-0.2-3.4,0.6-4.9c0.7-1.2,3.4-5.1,8-11.7l11.9-17.1c2.9-4.2,5.1-7.6,6.7-10.1c-75.3,20.4-128.7,56.7-160.2,109.1
	c-10.6,17.5-16,33.7-16.3,48.4c-0.4,17.1,7.4,28.6,23.6,34.4c1.6,0.6,2.8,1.7,3.6,3.4c0.8,1.6,0.9,3.3,0.3,5.1
	c-0.6,1.7-1.7,3-3.3,3.8c-1.6,0.8-3.3,0.9-5,0.3c-11.4-4-19.7-10.2-24.9-18.6c-5.2-8.3-7.7-17.9-7.4-28.7
	c0.4-17.2,6.6-35.7,18.4-55.3c33-54.7,88.2-92.8,165.9-114.2c-2.6-0.7-5.9-1.6-10-2.5c-20.4-4.5-31.4-7.1-33.2-7.9
	c-1.7-0.7-2.9-2-3.6-3.7c-0.7-1.7-0.7-3.4,0-5.2c0.6-1.7,1.8-2.9,3.5-3.6C920.1,638.6,921.7,638.6,923.3,639.2z"/>
<path fill="#444242" d="M1247.4,657.3c2.7,1.5,5.7,2.7,8.8,3.7c3.1,1,5.7,1.7,7.7,2.1c2,0.4,5.2,0.8,9.6,1.1
	c4.4,0.3,7.2,0.4,8.3,0.4h10.6h10h0.2c0.1,0,0.3,0,0.3-0.1c0.1-0.1,0.4-0.1,0.9-0.2c0.5-0.1,1.1-0.2,1.8-0.3c5.3-1,9.3,0.3,11.9,4
	c3.6,4.9,3.2,10.7-1.3,17.3c-0.3,0.3-3.8,4.7-10.4,13.3c-11.9,15-21,30.8-27.3,47.5c-0.7,2.1-2.1,3.6-4.2,4.6
	c-2.1,1-4.2,1.1-6.3,0.2c-2.1-0.8-3.6-2.3-4.6-4.5c-0.9-2.2-1-4.4-0.1-6.6c6.2-16.5,14.5-31.6,24.7-45.2
	c-21.1,7.8-42.8,20.4-65.2,37.8c-22.3,17.4-41.2,35.4-56.7,54c-2.2,2.6-5.5,7.1-10.1,13.6c-4.6,6.5-8.7,13.1-12.5,19.7
	c-4.5,8.4-7.2,15.1-8.2,20c-0.3,1.9-0.4,3.3-0.2,4c6.2,2.4,17.9,0.4,35.1-5.8c5.6-2.1,12.9-5.1,21.9-9c10.3-4.5,16.3-7,18-7.6
	c2.2-0.7,4.3-0.6,6.3,0.3c2,1,3.4,2.6,4.2,4.8c0.8,2.2,0.7,4.4-0.2,6.5c-0.9,2.1-2.5,3.6-4.7,4.4c-2.2,0.8-7.9,3.3-17.1,7.3
	c-9.3,4-16.9,7.2-23,9.4c-21.1,7.8-36.6,9.6-46.6,5.4c-4.9-2-8-5.1-9.3-9.4c-1.3-4.4-1.4-8.9-0.4-13.7c1.3-6.7,4.6-15.1,10-25
	c4-7.2,8.5-14.3,13.3-21.3c4.8-7,8.5-12,10.9-15c15.3-18.1,33.9-36,55.8-53.5c21.9-17.5,43.7-30.9,65.4-40
	c-13.7-0.9-25.4-3.9-34.9-9c-2-1-3.4-2.7-4.1-4.9c-0.7-2.2-0.6-4.4,0.4-6.5c1-2.1,2.6-3.5,4.8-4.3
	C1243.3,656.1,1245.4,656.2,1247.4,657.3z"/>
<g>
	<g>
		<g>
			<path fill="#444242" d="M717.4,912.1c0.5,0,0.9,0.4,0.9,0.4l-7.5,16c-0.8,0-2.8,0.1-3.3,0.1c-0.5,0-0.9-0.4-0.9-0.4l-2.6-16
				c1.6,0,3.5-0.1,4.1-0.1c0.5,0,0.9,0.4,0.9,0.4l0.8,7.8c0.1,0.7,0.1,1.6,0,2.6c0.3-1.1,0.5-2.1,0.8-2.8l3.1-7.9
				C715.1,912.2,716.8,912.1,717.4,912.1L717.4,912.1z"/>
		</g>
		<g>
			<path fill="#444242" d="M725.1,920c0,1.7-1,2.9-3.4,3.4l-2.5,0.5c0.2,1.1,0.9,1.6,2,1.6c1.4,0,2.3-1.1,2.3-1.1s0.7,0.4,0.7,1.2
				c0,1.5-2.2,3-4.8,3c-2.6,0-4.4-1.7-4.4-4.5c0-3.2,2.3-7.6,6.4-7.6C723.7,916.7,725.1,918,725.1,920L725.1,920z M720.8,921.7
				c0.5-0.2,0.7-0.6,0.7-1.1c0-0.5-0.2-1.2-0.7-1.2c-1,0-1.5,1.6-1.6,2.9L720.8,921.7z"/>
		</g>
		<g>
			<path fill="#444242" d="M732,916.7c2.1,0,3.6,1.1,3.6,2.5c0,1.8-2.2,2.4-2.2,2.4s-0.6-1.9-2.1-1.9c-1,0-1.5,1-1.5,3.1
				c0,1.9,0.5,2.8,1.8,2.8c1.3,0,2.1-0.9,2.1-0.9s0.7,0.4,0.7,1.2c0,1.4-2.1,2.9-4.6,2.9c-2.7,0-4.3-1.7-4.3-4.4
				C725.5,921.1,727.8,916.7,732,916.7L732,916.7z"/>
		</g>
		<g>
			<path fill="#444242" d="M741.9,914.1c0.5,0,0.8,0.4,0.8,0.4l-0.4,2.4h2.6l-0.6,1.9c-0.2,0.6-0.5,0.9-1.1,0.9h-1.4l-0.8,4.8
				c-0.1,0.8,0,1.1,0.6,1.1c0.5,0,0.9-0.3,0.9-0.3s0.7,0.4,0.7,1.2c0,1.2-1.7,2.3-3.8,2.3c-2.2,0-3.1-1.4-2.8-3.8l0.8-5.3h-1.4
				l0.6-1.9c0.2-0.5,0.6-0.9,1.1-0.9h0.7l0.8-2.3C740.5,914.4,741.4,914.1,741.9,914.1L741.9,914.1z"/>
		</g>
		<g>
			<path fill="#444242" d="M754.5,920c0,1.7-1,2.9-3.4,3.4l-2.5,0.5c0.2,1.1,0.9,1.6,2,1.6c1.4,0,2.3-1.1,2.3-1.1s0.7,0.4,0.7,1.2
				c0,1.5-2.2,3-4.8,3c-2.6,0-4.4-1.7-4.4-4.5c0-3.2,2.3-7.6,6.4-7.6C753.1,916.7,754.5,918,754.5,920L754.5,920z M750.2,921.7
				c0.5-0.2,0.7-0.6,0.7-1.1c0-0.5-0.2-1.2-0.7-1.2c-1,0-1.5,1.6-1.6,2.9L750.2,921.7z"/>
		</g>
		<g>
			<path fill="#444242" d="M764.9,920c0,1.7-1,2.9-3.4,3.4l-2.5,0.5c0.2,1.1,0.9,1.6,2,1.6c1.4,0,2.3-1.1,2.3-1.1s0.7,0.4,0.7,1.2
				c0,1.5-2.2,3-4.8,3c-2.6,0-4.4-1.7-4.4-4.5c0-3.2,2.3-7.6,6.4-7.6C763.5,916.7,764.9,918,764.9,920L764.9,920z M760.6,921.7
				c0.5-0.2,0.7-0.6,0.7-1.1c0-0.5-0.2-1.2-0.7-1.2c-1,0-1.5,1.6-1.6,2.9L760.6,921.7z"/>
		</g>
		<g>
			<path fill="#444242" d="M773.4,924.4c0,0,0.9,0.8,0.9,2.1c0,1.8-1.5,2.3-2.8,2.3c-1.7,0-2.9-0.8-4.1-1.2c-0.3,0.4-0.7,0.8-1,1.2
				c0,0-1.9,0-1.9-1.3c0-1.5,2.6-4.2,5.4-7.2c-0.3-0.1-0.6-0.1-0.9-0.1c-1.6,0-2.2,0.8-2.2,0.8s-0.8-0.9-0.7-2.1
				c0.1-1.7,1.7-2.1,3-2.1c1.3,0,2.3,0.5,3.3,0.9l0.8-0.9c0,0,1.9,0.1,1.9,1.3c0,1.5-2.5,4.1-5.2,7c0.6,0.2,1.1,0.3,1.6,0.3
				C772.7,925.3,773.4,924.4,773.4,924.4L773.4,924.4z"/>
		</g>
		<g>
			<path fill="#444242" d="M785.5,927.8c-0.7,4.1-3.5,6.2-7,6.2c-2.3,0-3.9-1.2-3.9-2.6c0-0.9,0.8-1.3,0.8-1.3s0.8,0.7,2.3,0.7
				c1.4,0,3.3-0.6,3.7-2.8l0.3-1.7c-1,1.4-2.2,2.5-3.8,2.5c-1.8,0-2.6-1.5-2.1-4.5l0.5-3.2c0.3-2,0.4-3.6,0.4-3.6
				c1.3-0.2,3-0.8,3.6-0.8c0.5,0,0.9,0.4,0.9,0.4l-0.6,4l-0.6,3.7c-0.1,0.3,0,0.5,0.3,0.5c1.5,0,2.3-4.3,2.3-4.3
				c0.3-2,0.4-3.6,0.4-3.6c1.3-0.2,3-0.8,3.6-0.8c0.5,0,0.9,0.4,0.9,0.4l-0.6,4L785.5,927.8z"/>
		</g>
	</g>
	<g>
		<path fill="#444242" d="M612.8,917.3h4c0.9,0,1.6,0.1,2.1,0.2c0.6,0.2,1.2,0.5,1.6,1c0.5,0.5,0.8,1.1,1,1.8
			c0.2,0.7,0.4,1.6,0.4,2.6c0,0.9-0.1,1.7-0.3,2.3c-0.3,0.8-0.7,1.4-1.2,1.9c-0.4,0.4-0.9,0.7-1.5,0.9c-0.5,0.2-1.1,0.2-1.9,0.2
			h-4.1V917.3z M615,919.2v7.2h1.6c0.6,0,1.1,0,1.3-0.1c0.4-0.1,0.7-0.2,0.9-0.5c0.2-0.2,0.4-0.6,0.6-1c0.1-0.5,0.2-1.1,0.2-2
			c0-0.8-0.1-1.5-0.2-1.9s-0.4-0.8-0.6-1.1c-0.3-0.3-0.6-0.4-1-0.5c-0.3-0.1-0.9-0.1-1.8-0.1H615z"/>
		<path fill="#444242" d="M628,925.7l2.1,0.3c-0.3,0.8-0.7,1.3-1.3,1.7c-0.6,0.4-1.3,0.6-2.2,0.6c-1.4,0-2.4-0.4-3-1.3
			c-0.5-0.7-0.8-1.6-0.8-2.7c0-1.3,0.3-2.3,1-3.1c0.7-0.7,1.5-1.1,2.6-1.1c1.2,0,2.1,0.4,2.8,1.2c0.7,0.8,1,2,1,3.6H625
			c0,0.6,0.2,1.1,0.5,1.4c0.3,0.3,0.7,0.5,1.2,0.5c0.3,0,0.6-0.1,0.8-0.3C627.8,926.4,627.9,926.1,628,925.7z M628.2,923.6
			c0-0.6-0.2-1.1-0.5-1.4c-0.3-0.3-0.7-0.5-1.1-0.5c-0.5,0-0.8,0.2-1.1,0.5c-0.3,0.3-0.4,0.8-0.4,1.3H628.2z"/>
		<path fill="#444242" d="M630.9,925.9l2.1-0.3c0.1,0.4,0.3,0.7,0.5,0.9c0.3,0.2,0.7,0.3,1.1,0.3c0.5,0,0.9-0.1,1.2-0.3
			c0.2-0.1,0.3-0.3,0.3-0.6c0-0.2,0-0.3-0.1-0.4c-0.1-0.1-0.3-0.2-0.7-0.3c-1.7-0.4-2.7-0.7-3.2-1c-0.6-0.4-0.9-1-0.9-1.8
			c0-0.7,0.3-1.3,0.8-1.7c0.5-0.5,1.4-0.7,2.5-0.7c1.1,0,1.9,0.2,2.4,0.5c0.5,0.4,0.9,0.9,1.1,1.6l-2,0.4c-0.1-0.3-0.2-0.5-0.5-0.7
			c-0.2-0.2-0.6-0.2-1-0.2c-0.5,0-0.9,0.1-1.2,0.2c-0.2,0.1-0.2,0.2-0.2,0.4c0,0.1,0.1,0.3,0.2,0.4c0.2,0.1,0.8,0.3,1.9,0.6
			c1.1,0.3,1.9,0.6,2.3,0.9c0.4,0.4,0.7,0.9,0.7,1.5c0,0.7-0.3,1.3-0.9,1.9c-0.6,0.5-1.5,0.8-2.7,0.8c-1.1,0-1.9-0.2-2.5-0.7
			C631.5,927.3,631.1,926.7,630.9,925.9z"/>
		<path fill="#444242" d="M639.8,919.2v-1.9h2.1v1.9H639.8z M639.8,928.2v-7.9h2.1v7.9H639.8z"/>
		<path fill="#444242" d="M643.5,928.7l2.4,0.3c0,0.3,0.1,0.5,0.3,0.6c0.2,0.1,0.5,0.2,0.9,0.2c0.5,0,1-0.1,1.2-0.2
			c0.2-0.1,0.3-0.3,0.4-0.5c0.1-0.2,0.1-0.5,0.1-1v-1.1c-0.6,0.8-1.4,1.3-2.4,1.3c-1.1,0-1.9-0.4-2.5-1.3c-0.5-0.7-0.7-1.6-0.7-2.6
			c0-1.3,0.3-2.3,1-3c0.6-0.7,1.4-1,2.4-1c1,0,1.8,0.4,2.4,1.3v-1.1h1.9v7.1c0,0.9-0.1,1.6-0.2,2.1c-0.2,0.5-0.4,0.8-0.6,1.1
			c-0.3,0.3-0.6,0.5-1.1,0.6c-0.5,0.1-1,0.2-1.8,0.2c-1.3,0-2.3-0.2-2.8-0.7c-0.6-0.5-0.8-1-0.8-1.7
			C643.5,928.9,643.5,928.8,643.5,928.7z M645.3,924.1c0,0.8,0.2,1.4,0.5,1.8c0.3,0.4,0.7,0.6,1.2,0.6c0.5,0,0.9-0.2,1.3-0.6
			c0.4-0.4,0.5-1,0.5-1.8c0-0.8-0.2-1.4-0.5-1.8c-0.3-0.4-0.8-0.6-1.3-0.6c-0.5,0-0.9,0.2-1.2,0.6S645.3,923.3,645.3,924.1z"/>
		<path fill="#444242" d="M659.8,928.2h-2.1v-4c0-0.8,0-1.4-0.1-1.6c-0.1-0.2-0.2-0.4-0.4-0.6c-0.2-0.1-0.4-0.2-0.7-0.2
			c-0.4,0-0.7,0.1-1,0.3c-0.3,0.2-0.5,0.5-0.6,0.8s-0.2,0.9-0.2,1.8v3.6h-2.1v-7.9h1.9v1.2c0.7-0.9,1.6-1.3,2.6-1.3
			c0.5,0,0.9,0.1,1.3,0.2c0.4,0.2,0.7,0.4,0.9,0.6c0.2,0.3,0.3,0.5,0.4,0.9c0.1,0.3,0.1,0.8,0.1,1.4V928.2z"/>
		<path fill="#444242" d="M666.2,925.7l2.1,0.3c-0.3,0.8-0.7,1.3-1.3,1.7c-0.6,0.4-1.3,0.6-2.2,0.6c-1.4,0-2.4-0.4-3-1.3
			c-0.5-0.7-0.8-1.6-0.8-2.7c0-1.3,0.3-2.3,1-3.1s1.5-1.1,2.6-1.1c1.2,0,2.1,0.4,2.8,1.2c0.7,0.8,1,2,1,3.6h-5.2
			c0,0.6,0.2,1.1,0.5,1.4c0.3,0.3,0.7,0.5,1.2,0.5c0.3,0,0.6-0.1,0.8-0.3C665.9,926.4,666,926.1,666.2,925.7z M666.3,923.6
			c0-0.6-0.2-1.1-0.5-1.4c-0.3-0.3-0.7-0.5-1.1-0.5c-0.5,0-0.8,0.2-1.1,0.5c-0.3,0.3-0.4,0.8-0.4,1.3H666.3z"/>
		<path fill="#444242" d="M677,928.2H675V927c-0.3,0.4-0.7,0.8-1.1,1c-0.4,0.2-0.9,0.3-1.3,0.3c-0.9,0-1.7-0.4-2.3-1.1
			c-0.6-0.7-1-1.7-1-3c0-1.3,0.3-2.3,0.9-3c0.6-0.7,1.4-1,2.4-1c0.9,0,1.6,0.4,2.3,1.1v-3.9h2.1V928.2z M671.4,924.1
			c0,0.8,0.1,1.4,0.3,1.8c0.3,0.5,0.8,0.8,1.4,0.8c0.5,0,0.9-0.2,1.2-0.6c0.3-0.4,0.5-1,0.5-1.8c0-0.9-0.2-1.6-0.5-2
			c-0.3-0.4-0.7-0.6-1.3-0.6c-0.5,0-0.9,0.2-1.2,0.6C671.6,922.7,671.4,923.3,671.4,924.1z"/>
		<path fill="#444242" d="M682.5,928.2v-10.9h2.1v3.9c0.6-0.7,1.4-1.1,2.3-1.1c1,0,1.8,0.3,2.4,1c0.6,0.7,0.9,1.7,0.9,3
			c0,1.3-0.3,2.4-1,3.1c-0.6,0.7-1.4,1.1-2.3,1.1c-0.4,0-0.9-0.1-1.3-0.3c-0.4-0.2-0.8-0.6-1.1-1v1.2H682.5z M684.6,924.1
			c0,0.8,0.1,1.4,0.4,1.8c0.4,0.6,0.8,0.8,1.4,0.8c0.5,0,0.9-0.2,1.2-0.6c0.3-0.4,0.5-1,0.5-1.9c0-0.9-0.2-1.5-0.5-1.9
			s-0.7-0.6-1.3-0.6c-0.5,0-0.9,0.2-1.2,0.6S684.6,923.3,684.6,924.1z"/>
		<path fill="#444242" d="M690.6,920.3h2.2l1.9,5.6l1.8-5.6h2.2l-2.8,7.6l-0.5,1.4c-0.2,0.5-0.4,0.8-0.5,1.1s-0.4,0.4-0.6,0.6
			c-0.2,0.2-0.5,0.3-0.8,0.4c-0.3,0.1-0.7,0.1-1.1,0.1c-0.4,0-0.8,0-1.2-0.1l-0.2-1.6c0.3,0.1,0.6,0.1,0.9,0.1
			c0.5,0,0.8-0.1,1.1-0.4c0.2-0.3,0.4-0.6,0.5-1.1L690.6,920.3z"/>
	</g>
</g>
</svg>
