<?xml version="1.0" encoding="utf-8"?>
<svg id="master-artboard" viewBox="0 0 1400 980" version="1.1" xmlns="http://www.w3.org/2000/svg" x="0px" y="0px" style="enable-background:new 0 0 1400 980;" width="1400px" height="980px"><g transform="matrix(0.875, 0, 0, 0.875, -0.000004676672233472345, 52.49999532332777)"><path d="M 0 0 H 1600 V 1000 H 0 V 0 Z" class="st0" style="fill: rgb(255, 255, 255);"/><g>
	<g>
		<g>
			<g>
				<path d="M 86.199997 368.5 H 372.699997 V 533.199997 H 86.199997 V 368.5 Z" class="st1" style="fill: rgb(234, 228, 206);"/>
			</g>
			<path class="st2" d="M95.3,377.5v147.1H364V377.5H95.3z M130.5,506.9c0-9.7-7.9-17.6-17.6-17.6v-76.6c9.7,0,17.6-7.9,17.6-17.6&#10;&#9;&#9;&#9;&#9;h85.4c-13.6,8.9-23.2,30.5-23.2,55.8c0,25.5,9.8,47.3,23.6,56H130.5z M328.8,506.9H243c13.8-8.7,23.6-30.5,23.6-56&#10;&#9;&#9;&#9;&#9;c0-25.3-9.6-46.9-23.2-55.8h85.4c0,9.7,7.9,17.6,17.6,17.6v76.6C336.7,489.3,328.8,497.2,328.8,506.9z" style="fill: rgb(98, 162, 125);"/>
		</g>
		<g class="st3" style="opacity: 0.1;">
			<path d="M 372.70001220703125 495 L 372.70001220703125 368.5 L 90.5 368.5 L 86.19999694824219 386.8999938964844 L 86.19999694824219 441.1000061035156 L 369.70001220703125 507.6000061035156 Z"/>
		</g>
		<g>
			<g>
				
					<path d="M 99.5 302.100006 H 386 V 466.800003 H 99.5 V 302.100006 Z" transform="matrix(0.9736 0.2284 -0.2284 0.9736 94.2139 -45.2682)" class="st1" style="fill: rgb(234, 228, 206);"/>
			</g>
			<path class="st2" d="M128.8,282.3L95.3,425.5l261.6,61.4l33.6-143.2L128.8,282.3z M133.5,416.4c2.2-9.5-3.7-18.9-13.1-21.2&#10;&#9;&#9;&#9;&#9;l17.5-74.6c9.5,2.2,18.9-3.7,21.2-13.1l83.2,19.5c-15.3,5.5-29.6,24.4-35.4,49c-5.8,24.9-1.3,48.3,10.2,60L133.5,416.4z&#10;&#9;&#9;&#9;&#9; M326.6,461.7l-83.5-19.6c15.4-5.3,29.9-24.3,35.8-49.2c5.8-24.6,1.4-47.9-9.9-59.6l83.2,19.5c-2.2,9.5,3.7,18.9,13.1,21.2&#10;&#9;&#9;&#9;&#9;l-17.5,74.6C338.3,446.4,328.8,452.2,326.6,461.7z" style="fill: rgb(98, 162, 125);"/>
		</g>
		<g class="st3" style="opacity: 0.1;">
			<path d="M 153.5 279 L 135.89999389648438 303.1000061035156 L 369 473.29998779296875 L 401 337 Z"/>
		</g>
		<g>
			<g>
				
					<path d="M 168.800003 236.899994 H 455.300003 V 401.599991 H 168.800003 V 236.899994 Z" transform="matrix(0.8077 0.5896 -0.5896 0.8077 248.2233 -122.6049)" class="st1" style="fill: rgb(234, 228, 206);"/>
			</g>
			<path class="st2" d="M247,180.8l-86.7,118.8l217,158.4L464,339.2L247,180.8z M199.1,306.1c5.7-7.9,4-18.9-3.8-24.6l45.2-61.9&#10;&#9;&#9;&#9;&#9;c7.9,5.7,18.9,4,24.6-3.8l69,50.4c-16.2-0.9-36.8,10.9-51.7,31.4c-15.1,20.6-20,44-14,59.2L199.1,306.1z M359.2,423L290,372.5&#10;&#9;&#9;&#9;&#9;c16.3,1.1,37.1-10.7,52.1-31.3c14.9-20.4,19.9-43.6,14.1-58.8l69,50.4c-5.7,7.9-4,18.9,3.8,24.6l-45.2,61.9&#10;&#9;&#9;&#9;&#9;C376,413.5,365,415.2,359.2,423z" style="fill: rgb(98, 162, 125);"/>
		</g>
		<g class="st3" style="opacity: 0.1;">
			<path d="M 276.3999938964844 191.1999969482422 L 242.39999389648438 211.39999389648438 L 388.70001220703125 457.20001220703125 L 476.29998779296875 337.20001220703125 Z"/>
		</g>
		<g>
			<g>
				
					<path d="M 254.899994 213 H 541.399994 V 377.699997 H 254.899994 V 213 Z" transform="matrix(0.5114 0.8594 -0.8594 0.5114 448.3884 -197.8543)" class="st1" style="fill: rgb(234, 228, 206);"/>
			</g>
			<path class="st2" d="M392.6,142.5l-126.4,75.2l137.4,230.9l126.4-75.2L392.6,142.5z M299.4,239c8.4-5,11.1-15.8,6.1-24.1&#10;&#9;&#9;&#9;&#9;l65.9-39.2c5,8.4,15.8,11.1,24.1,6.1l43.7,73.4c-14.6-7.2-38.1-4.4-59.8,8.6c-21.9,13.1-35.7,32.6-36.1,48.9L299.4,239z&#10;&#9;&#9;&#9;&#9; M400.8,409.4l-43.9-73.7c14.6,7.4,38.3,4.7,60.2-8.4c21.7-12.9,35.4-32.3,36.1-48.5l43.7,73.4c-8.4,5-11.1,15.8-6.1,24.1&#10;&#9;&#9;&#9;&#9;l-65.9,39.2C420,407.2,409.2,404.4,400.8,409.4z" style="fill: rgb(98, 162, 125);"/>
		</g>
	</g>
	<g>
		<path d="M 170.100006 685 H 456.600006 V 849.699997 H 170.100006 V 685 Z" class="st4" style="fill: rgb(75, 150, 105);"/>
		<g>
			<g>
				<path d="M 170.100006 656.900024 H 456.600006 V 821.600021 H 170.100006 V 656.900024 Z" class="st1" style="fill: rgb(234, 228, 206);"/>
			</g>
			<path class="st2" d="M179.1,665.8v147.1h268.7V665.8H179.1z M214.3,795.3c0-9.7-7.9-17.6-17.6-17.6V701c9.7,0,17.6-7.9,17.6-17.6&#10;&#9;&#9;&#9;&#9;h85.4c-13.6,8.9-23.2,30.5-23.2,55.8c0,25.5,9.8,47.3,23.6,56H214.3z M412.7,795.3h-85.8c13.8-8.7,23.6-30.5,23.6-56&#10;&#9;&#9;&#9;&#9;c0-25.3-9.6-46.9-23.2-55.8h85.4c0,9.7,7.9,17.6,17.6,17.6v76.6C420.5,777.7,412.7,785.6,412.7,795.3z" style="fill: rgb(98, 162, 125);"/>
		</g>
	</g>
	<g>
		<g>
			<g>
				<path class="st1" d="M1370.1,845.9c-91.4,72.5-182.9-72.5-274.3,0c6.8-48.7,13.5-97.3,20.3-146c77.9-61.8,155.8,61.8,233.7,0&#10;&#9;&#9;&#9;&#9;&#9;C1356.5,748.6,1363.3,797.2,1370.1,845.9z" style="fill: rgb(234, 228, 206);"/>
			</g>
			<path class="st2" d="M1122.4,702.4c-5.7,43.2-11.3,86.4-17,129.6c85.1-55.1,170.2,67.7,255.3,12.2c-5.7-43.7-11.4-87.5-17-131.2&#10;&#9;&#9;&#9;&#9;C1269.9,761.1,1196.2,654.7,1122.4,702.4z M1140.4,803.4c0.8-8.4-5.8-14.3-14.7-10.8c2.6-22.3,5.1-44.6,7.7-66.9&#10;&#9;&#9;&#9;&#9;c8.3-3.3,15.7-11,16.5-19.5c23.9-4.1,47.8,3.5,71.6,12.7c-11.5,3.4-20.4,19.7-21.3,41.9c-0.9,22.3,7.4,44.2,20.3,56.9&#10;&#9;&#9;&#9;&#9;C1193.8,807.4,1167.1,798.8,1140.4,803.4z M1325.8,841.7c-26.7,4.7-53.5-3.8-80.2-14.1c12.9-2.7,21.2-19.5,20.3-42.5&#10;&#9;&#9;&#9;&#9;c-0.9-22.7-9.8-44.8-21.3-57.1c23.9,9.2,47.8,16.8,71.6,12.6c0.8,8.8,8.2,15,16.5,11.7c2.6,23,5.1,46,7.7,69&#10;&#9;&#9;&#9;&#9;C1331.5,824.7,1325,832.9,1325.8,841.7z" style="fill: rgb(98, 162, 125);"/>
		</g>
		<g class="st3" style="opacity: 0.1;">
			<path d="M1244.9,704.6l-17,122.3l19.6-15.5c15.9-12.6,32.9-18.8,51.8-18.8c21.4,0,43.1,7.5,65.7,16.4&#10;&#9;&#9;&#9;&#9;c-5.1-36.4-10.1-72.7-15.2-109.1C1314.8,727.6,1279.8,718,1244.9,704.6z"/>
		</g>
		<g>
			<g>
				<path class="st1" d="M1515.5,803.5c-91.4,72.5-182.9-72.5-274.3,0c6.8-48.7,13.5-97.3,20.3-146c77.9-61.8,155.8,61.8,233.7,0&#10;&#9;&#9;&#9;&#9;&#9;C1502,706.2,1508.8,754.9,1515.5,803.5z" style="fill: rgb(234, 228, 206);"/>
			</g>
			<path class="st2" d="M1267.9,660.1c-5.7,43.2-11.3,86.4-17,129.6c85.1-55.1,170.2,67.7,255.3,12.2c-5.7-43.7-11.4-87.5-17-131.2&#10;&#9;&#9;&#9;&#9;C1415.4,718.8,1341.6,612.3,1267.9,660.1z M1285.8,761.1c0.8-8.4-5.8-14.3-14.7-10.8c2.6-22.3,5.1-44.6,7.7-66.9&#10;&#9;&#9;&#9;&#9;c8.3-3.3,15.7-11,16.5-19.5c23.9-4.1,47.8,3.5,71.6,12.7c-11.5,3.4-20.4,19.7-21.3,41.9c-0.9,22.3,7.4,44.2,20.3,56.9&#10;&#9;&#9;&#9;&#9;C1339.3,765.1,1312.6,756.5,1285.8,761.1z M1471.3,799.4c-26.7,4.7-53.5-3.8-80.2-14.1c12.9-2.7,21.2-19.5,20.3-42.5&#10;&#9;&#9;&#9;&#9;c-0.9-22.7-9.8-44.8-21.3-57.1c23.9,9.2,47.8,16.8,71.6,12.6c0.8,8.8,8.2,15,16.5,11.7c2.6,23,5.1,46,7.7,69&#10;&#9;&#9;&#9;&#9;C1477,782.4,1470.5,790.5,1471.3,799.4z" style="fill: rgb(98, 162, 125);"/>
		</g>
	</g>
	<g>
		<g>
			<g>
				<g class="st5">
					<g>
						<path d="M 1456.800048828125 432.6000061035156 L 1346.9000244140625 496.3999938964844 L 1154.5999755859375 385.3999938964844 L 1264.4000244140625 321.5 Z" class="st1" style="fill: rgb(234, 228, 206);"/>
					</g>
					<g>
						<path d="M 1346.9000244140625 496.3999938964844 L 1346.800048828125 529.4000244140625 L 1456.699951171875 465.6000061035156 L 1456.800048828125 432.6000061035156 Z" class="st4" style="fill: rgb(75, 150, 105);"/>
						<path d="M 1154.5999755859375 385.3999938964844 L 1154.5 418.3999938964844 L 1346.800048828125 529.4000244140625 L 1346.9000244140625 496.3999938964844 Z" class="st2" style="fill: rgb(98, 162, 125);"/>
					</g>
				</g>
			</g>
			<g>
				<g class="st5">
					<g>
						<path class="st2" d="M1264.7,328.5l180.4,104.2l-98.1,57l-180.4-104.2L1264.7,328.5z M1358.7,469.2l51.1-29.7&#10;&#9;&#9;&#9;&#9;&#9;&#9;&#9;c-6.5-3.8-6.6-9.9-0.1-13.6l-57.4-33.1c3.2,8.7-4.7,20.8-21.6,30.6c-17,9.9-38.2,14.6-53.2,12.6l57.6,33.3&#10;&#9;&#9;&#9;&#9;&#9;&#9;&#9;C1341.6,465.4,1352.2,465.4,1358.7,469.2 M1202,392.3l57.6,33.3c-3.5-8.7,4.5-21,21.5-30.9c16.9-9.8,37.8-14.5,52.8-12.6&#10;&#9;&#9;&#9;&#9;&#9;&#9;&#9;l-57.4-33.1c-6.5,3.8-17,3.8-23.6,0l-51.1,29.7C1208.4,382.4,1208.5,388.6,1202,392.3" style="fill: rgb(98, 162, 125);"/>
					</g>
				</g>
			</g>
		</g>
		<g>
			<g>
				<g class="st5">
					<g>
						<path d="M 1456.800048828125 395.1000061035156 L 1346.9000244140625 458.8999938964844 L 1154.5999755859375 347.79998779296875 L 1264.4000244140625 284 Z" class="st1" style="fill: rgb(234, 228, 206);"/>
					</g>
					<g>
						<path d="M 1346.9000244140625 458.8999938964844 L 1346.800048828125 491.8999938964844 L 1456.699951171875 428.1000061035156 L 1456.800048828125 395.1000061035156 Z" class="st4" style="fill: rgb(75, 150, 105);"/>
						<path d="M 1154.5999755859375 347.79998779296875 L 1154.5 380.8999938964844 L 1346.800048828125 491.8999938964844 L 1346.9000244140625 458.8999938964844 Z" class="st2" style="fill: rgb(98, 162, 125);"/>
					</g>
				</g>
			</g>
			<g>
				<g class="st5">
					<g>
						<path class="st2" d="M1264.7,291l180.4,104.2l-98.1,57L1166.6,348L1264.7,291z M1358.7,431.7l51.1-29.7&#10;&#9;&#9;&#9;&#9;&#9;&#9;&#9;c-6.5-3.8-6.6-9.9-0.1-13.6l-57.4-33.1c3.2,8.7-4.7,20.8-21.6,30.6c-17,9.9-38.2,14.6-53.2,12.6l57.6,33.3&#10;&#9;&#9;&#9;&#9;&#9;&#9;&#9;C1341.6,427.9,1352.2,427.9,1358.7,431.7 M1202,354.8l57.6,33.3c-3.5-8.7,4.5-21,21.5-30.9c16.9-9.8,37.8-14.5,52.8-12.6&#10;&#9;&#9;&#9;&#9;&#9;&#9;&#9;l-57.4-33.1c-6.5,3.8-17,3.8-23.6,0l-51.1,29.7C1208.4,344.9,1208.5,351,1202,354.8" style="fill: rgb(98, 162, 125);"/>
					</g>
				</g>
			</g>
		</g>
		<g>
			<g>
				<g class="st5">
					<g>
						<path d="M 1456.800048828125 357.5 L 1346.9000244140625 421.3999938964844 L 1154.5999755859375 310.29998779296875 L 1264.4000244140625 246.5 Z" class="st1" style="fill: rgb(234, 228, 206);"/>
					</g>
					<g>
						<path d="M 1346.9000244140625 421.3999938964844 L 1346.800048828125 454.3999938964844 L 1456.699951171875 390.6000061035156 L 1456.800048828125 357.5 Z" class="st4" style="fill: rgb(75, 150, 105);"/>
						<path d="M 1154.5999755859375 310.29998779296875 L 1154.5 343.29998779296875 L 1346.800048828125 454.3999938964844 L 1346.9000244140625 421.3999938964844 Z" class="st2" style="fill: rgb(98, 162, 125);"/>
					</g>
				</g>
			</g>
			<g>
				<g class="st5">
					<g>
						<path class="st2" d="M1264.7,253.4l180.4,104.2l-98.1,57l-180.4-104.2L1264.7,253.4z M1358.7,394.2l51.1-29.7&#10;&#9;&#9;&#9;&#9;&#9;&#9;&#9;c-6.5-3.8-6.6-9.9-0.1-13.6l-57.4-33.1c3.2,8.7-4.7,20.8-21.6,30.6c-17,9.9-38.2,14.6-53.2,12.6l57.6,33.3&#10;&#9;&#9;&#9;&#9;&#9;&#9;&#9;C1341.6,390.4,1352.2,390.4,1358.7,394.2 M1202,317.3l57.6,33.3c-3.5-8.7,4.5-21,21.5-30.9c16.9-9.8,37.8-14.5,52.8-12.6&#10;&#9;&#9;&#9;&#9;&#9;&#9;&#9;l-57.4-33.1c-6.5,3.8-17,3.8-23.6,0l-51.1,29.7C1208.4,307.4,1208.5,313.5,1202,317.3" style="fill: rgb(98, 162, 125);"/>
					</g>
				</g>
			</g>
		</g>
		<g>
			<g>
				<g class="st5">
					<g>
						<path d="M 1456.800048828125 320 L 1346.9000244140625 383.8999938964844 L 1154.5999755859375 272.79998779296875 L 1264.4000244140625 209 Z" class="st1" style="fill: rgb(234, 228, 206);"/>
					</g>
					<g>
						<path d="M 1346.9000244140625 383.8999938964844 L 1346.800048828125 416.8999938964844 L 1456.699951171875 353 L 1456.800048828125 320 Z" class="st4" style="fill: rgb(75, 150, 105);"/>
						<path d="M 1154.5999755859375 272.79998779296875 L 1154.5 305.79998779296875 L 1346.800048828125 416.8999938964844 L 1346.9000244140625 383.8999938964844 Z" class="st2" style="fill: rgb(98, 162, 125);"/>
					</g>
				</g>
			</g>
			<g>
				<g class="st5">
					<g>
						<path class="st2" d="M1264.7,215.9l180.4,104.2l-98.1,57l-180.4-104.2L1264.7,215.9z M1358.7,356.6l51.1-29.7&#10;&#9;&#9;&#9;&#9;&#9;&#9;&#9;c-6.5-3.8-6.6-9.9-0.1-13.6l-57.4-33.1c3.2,8.7-4.7,20.8-21.6,30.6c-17,9.9-38.2,14.6-53.2,12.6l57.6,33.3&#10;&#9;&#9;&#9;&#9;&#9;&#9;&#9;C1341.6,352.9,1352.2,352.9,1358.7,356.6 M1202,279.8l57.6,33.3c-3.5-8.7,4.5-21,21.5-30.9c16.9-9.8,37.8-14.5,52.8-12.6&#10;&#9;&#9;&#9;&#9;&#9;&#9;&#9;l-57.4-33.1c-6.5,3.8-17,3.8-23.6,0l-51.1,29.7C1208.4,269.9,1208.5,276,1202,279.8" style="fill: rgb(98, 162, 125);"/>
					</g>
				</g>
			</g>
		</g>
		<g>
			<g>
				<g class="st5">
					<g>
						<path d="M 1456.800048828125 282.5 L 1346.9000244140625 346.29998779296875 L 1154.5999755859375 235.3000030517578 L 1264.4000244140625 171.39999389648438 Z" class="st1" style="fill: rgb(234, 228, 206);"/>
					</g>
					<g>
						<path d="M 1346.9000244140625 346.29998779296875 L 1346.800048828125 379.3999938964844 L 1456.699951171875 315.5 L 1456.800048828125 282.5 Z" class="st4" style="fill: rgb(75, 150, 105);"/>
						<path d="M 1154.5999755859375 235.3000030517578 L 1154.5 268.29998779296875 L 1346.800048828125 379.3999938964844 L 1346.9000244140625 346.29998779296875 Z" class="st2" style="fill: rgb(98, 162, 125);"/>
					</g>
				</g>
			</g>
			<g>
				<g class="st5">
					<g>
						<path class="st2" d="M1264.7,178.4l180.4,104.2l-98.1,57l-180.4-104.2L1264.7,178.4z M1358.7,319.1l51.1-29.7&#10;&#9;&#9;&#9;&#9;&#9;&#9;&#9;c-6.5-3.8-6.6-9.9-0.1-13.6l-57.4-33.1c3.2,8.7-4.7,20.8-21.6,30.6c-17,9.9-38.2,14.6-53.2,12.6l57.6,33.3&#10;&#9;&#9;&#9;&#9;&#9;&#9;&#9;C1341.6,315.3,1352.2,315.3,1358.7,319.1 M1202,242.2l57.6,33.3c-3.5-8.7,4.5-21,21.5-30.9c16.9-9.8,37.8-14.5,52.8-12.6&#10;&#9;&#9;&#9;&#9;&#9;&#9;&#9;l-57.4-33.1c-6.5,3.8-17,3.8-23.6,0l-51.1,29.7C1208.4,232.4,1208.5,238.5,1202,242.2" style="fill: rgb(98, 162, 125);"/>
					</g>
				</g>
			</g>
		</g>
		<g>
			<g>
				<g class="st5">
					<g>
						<path d="M 1456.800048828125 245 L 1346.9000244140625 308.79998779296875 L 1154.5999755859375 197.8000030517578 L 1264.4000244140625 133.89999389648438 Z" class="st1" style="fill: rgb(234, 228, 206);"/>
					</g>
					<g>
						<path d="M 1346.9000244140625 308.79998779296875 L 1346.800048828125 341.79998779296875 L 1456.699951171875 278 L 1456.800048828125 245 Z" class="st4" style="fill: rgb(75, 150, 105);"/>
						<path d="M 1154.5999755859375 197.8000030517578 L 1154.5 230.8000030517578 L 1346.800048828125 341.79998779296875 L 1346.9000244140625 308.79998779296875 Z" class="st2" style="fill: rgb(98, 162, 125);"/>
					</g>
				</g>
			</g>
			<g>
				<g class="st5">
					<g>
						<path class="st2" d="M1264.7,140.9l180.4,104.2l-98.1,57l-180.4-104.2L1264.7,140.9z M1358.7,281.6l51.1-29.7&#10;&#9;&#9;&#9;&#9;&#9;&#9;&#9;c-6.5-3.8-6.6-9.9-0.1-13.6l-57.4-33.1c3.2,8.7-4.7,20.8-21.6,30.6c-17,9.9-38.2,14.6-53.2,12.6l57.6,33.3&#10;&#9;&#9;&#9;&#9;&#9;&#9;&#9;C1341.6,277.8,1352.2,277.8,1358.7,281.6 M1202,204.7l57.6,33.3c-3.5-8.7,4.5-21,21.5-30.9c16.9-9.8,37.8-14.5,52.8-12.6&#10;&#9;&#9;&#9;&#9;&#9;&#9;&#9;l-57.4-33.1c-6.5,3.8-17,3.8-23.6,0l-51.1,29.7C1208.4,194.8,1208.5,200.9,1202,204.7" style="fill: rgb(98, 162, 125);"/>
					</g>
				</g>
			</g>
		</g>
		<g>
			<g class="st5">
				<g>
					<path d="M 1381.5 201.5 L 1271.699951171875 265.3999938964844 L 1230.199951171875 241.39999389648438 L 1340 177.60000610351562 Z" class="st6" style="fill: rgb(219, 186, 110);"/>
				</g>
			</g>
		</g>
		<path d="M 1271.699951171875 486.1000061035156 L 1230.199951171875 462.1000061035156 L 1230.199951171875 241.39999389648438 L 1271.699951171875 265.3999938964844 Z" class="st7" style="fill: rgb(234, 202, 146);"/>
	</g>
	<g>
		<g>
			<g>
				<path d="M 803.900009 257.600006 A 74.199997 74.199997 0 0 1 729.700012 331.800003 A 74.199997 74.199997 0 0 1 655.500015 257.600006 A 74.199997 74.199997 0 0 1 729.700012 183.400009 A 74.199997 74.199997 0 0 1 803.900009 257.600006 Z" class="st8" style="fill: rgb(255, 176, 0);"/>
			</g>
			<g>
				<path d="M 803.900009 246.199997 A 74.199997 74.199997 0 0 1 729.700012 320.399994 A 74.199997 74.199997 0 0 1 655.500015 246.199997 A 74.199997 74.199997 0 0 1 729.700012 172 A 74.199997 74.199997 0 0 1 803.900009 246.199997 Z" class="st9" style="fill: rgb(255, 213, 0);"/>
			</g>
			<g>
				<path class="st10" d="M729.8,306.4l0-5.3c4.1,0,8.2-0.5,12.2-1.4l1.2,5.2C738.8,305.9,734.3,306.4,729.8,306.4z M716.4,304.9&#10;&#9;&#9;&#9;&#9;&#9;c-4.4-1-8.7-2.5-12.7-4.4l2.3-4.8c3.7,1.8,7.6,3.1,11.6,4L716.4,304.9z M755.9,300.4l-2.3-4.8c3.7-1.8,7.2-4,10.4-6.6l3.3,4.2&#10;&#9;&#9;&#9;&#9;&#9;C763.8,296.1,759.9,298.5,755.9,300.4z M692.2,293.3c-3.5-2.8-6.7-6-9.5-9.5l4.2-3.3c2.6,3.2,5.5,6.1,8.7,8.7L692.2,293.3z&#10;&#9;&#9;&#9;&#9;&#9; M776.8,283.7l-4.2-3.3c2.6-3.2,4.8-6.7,6.5-10.4l4.8,2.3C782,276.4,779.6,280.2,776.8,283.7z M675.4,272.4&#10;&#9;&#9;&#9;&#9;&#9;c-2-4.1-3.5-8.3-4.5-12.7l5.2-1.2c0.9,4,2.3,7.9,4.1,11.6L675.4,272.4z M788.5,259.6l-5.2-1.2c0.9-4,1.4-8.1,1.4-12.2l0-0.2&#10;&#9;&#9;&#9;&#9;&#9;l5.3,0l0,0.3C789.9,250.7,789.4,255.2,788.5,259.6z M674.8,246.3h-5.3l0-0.1c0-4.5,0.5-9,1.5-13.3l5.2,1.2&#10;&#9;&#9;&#9;&#9;&#9;c-0.9,3.9-1.3,8-1.3,12.1L674.8,246.3z M783.2,233.7c-0.9-4-2.3-7.9-4.1-11.6l4.8-2.3c2,4.1,3.5,8.3,4.5,12.7L783.2,233.7z&#10;&#9;&#9;&#9;&#9;&#9; M680.1,222.4l-4.8-2.3c1.9-4.1,4.4-7.9,7.2-11.4l4.2,3.3C684.1,215.2,681.9,218.7,680.1,222.4z M772.5,211.8&#10;&#9;&#9;&#9;&#9;&#9;c-2.6-3.2-5.5-6.1-8.7-8.7l3.3-4.2c3.5,2.8,6.7,6,9.6,9.5L772.5,211.8z M695.3,203.3l-3.3-4.2c3.5-2.8,7.3-5.2,11.4-7.2l2.3,4.8&#10;&#9;&#9;&#9;&#9;&#9;C702,198.5,698.5,200.7,695.3,203.3z M753.4,196.6c-3.7-1.8-7.6-3.1-11.6-4l1.2-5.2c4.4,1,8.7,2.5,12.8,4.4L753.4,196.6z&#10;&#9;&#9;&#9;&#9;&#9; M717.3,192.6l-1.2-5.2c4.4-1,8.9-1.5,13.4-1.5l0,5.3C725.4,191.2,721.3,191.7,717.3,192.6z" style="fill: rgb(236, 145, 0);"/>
			</g>
		</g>
		<g>
			<g>
				<path d="M 963.499985 274.799988 A 74.199997 74.199997 0 0 1 889.299988 348.999985 A 74.199997 74.199997 0 0 1 815.099991 274.799988 A 74.199997 74.199997 0 0 1 889.299988 200.599991 A 74.199997 74.199997 0 0 1 963.499985 274.799988 Z" class="st8" style="fill: rgb(255, 176, 0);"/>
			</g>
			<g>
				<path d="M 963.499985 263.399994 A 74.199997 74.199997 0 0 1 889.299988 337.599991 A 74.199997 74.199997 0 0 1 815.099991 263.399994 A 74.199997 74.199997 0 0 1 889.299988 189.199997 A 74.199997 74.199997 0 0 1 963.499985 263.399994 Z" class="st9" style="fill: rgb(255, 213, 0);"/>
			</g>
			<g>
				<path class="st10" d="M889.3,323.7l0-5.3c4.1,0,8.2-0.5,12.2-1.4l1.2,5.2C898.3,323.1,893.8,323.7,889.3,323.7z M875.9,322.2&#10;&#9;&#9;&#9;&#9;&#9;c-4.4-1-8.7-2.5-12.7-4.4l2.3-4.8c3.7,1.8,7.6,3.1,11.6,4L875.9,322.2z M915.4,317.7l-2.3-4.8c3.7-1.8,7.2-4,10.4-6.6l3.3,4.2&#10;&#9;&#9;&#9;&#9;&#9;C923.3,313.3,919.5,315.7,915.4,317.7z M851.8,310.6c-3.5-2.8-6.7-6-9.5-9.5l4.2-3.3c2.6,3.2,5.5,6.1,8.7,8.7L851.8,310.6z&#10;&#9;&#9;&#9;&#9;&#9; M936.4,301l-4.2-3.3c2.6-3.2,4.8-6.7,6.5-10.4l4.8,2.3C941.6,293.6,939.2,297.4,936.4,301z M835,289.6c-2-4.1-3.5-8.3-4.5-12.7&#10;&#9;&#9;&#9;&#9;&#9;l5.2-1.2c0.9,4,2.3,7.9,4.1,11.6L835,289.6z M948,276.8l-5.2-1.2c0.9-4,1.4-8.1,1.4-12.2l0-0.2l5.3,0l0,0.3&#10;&#9;&#9;&#9;&#9;&#9;C949.5,267.9,949,272.4,948,276.8z M834.3,263.5H829l0-0.1c0-4.5,0.5-9,1.5-13.3l5.2,1.2c-0.9,3.9-1.3,8-1.3,12.1L834.3,263.5z&#10;&#9;&#9;&#9;&#9;&#9; M942.8,251c-0.9-4-2.3-7.9-4.1-11.6l4.8-2.3c2,4.1,3.5,8.3,4.5,12.7L942.8,251z M839.7,239.7l-4.8-2.3&#10;&#9;&#9;&#9;&#9;&#9;c1.9-4.1,4.4-7.9,7.2-11.4l4.2,3.3C843.7,232.5,841.5,236,839.7,239.7z M932.1,229c-2.6-3.2-5.5-6.1-8.7-8.7l3.3-4.2&#10;&#9;&#9;&#9;&#9;&#9;c3.5,2.8,6.7,6,9.6,9.5L932.1,229z M854.9,220.5l-3.3-4.2c3.5-2.8,7.3-5.2,11.4-7.2l2.3,4.8C861.6,215.8,858.1,218,854.9,220.5z&#10;&#9;&#9;&#9;&#9;&#9; M912.9,213.8c-3.7-1.8-7.6-3.1-11.6-4l1.2-5.2c4.4,1,8.7,2.5,12.8,4.4L912.9,213.8z M876.9,209.9l-1.2-5.2&#10;&#9;&#9;&#9;&#9;&#9;c4.4-1,8.9-1.5,13.4-1.5l0,5.3C885,208.5,880.9,209,876.9,209.9z" style="fill: rgb(236, 145, 0);"/>
			</g>
		</g>
		<g>
			<g>
				<path d="M 854.900009 417.200012 A 74.199997 74.199997 0 0 1 780.700012 491.400009 A 74.199997 74.199997 0 0 1 706.500015 417.200012 A 74.199997 74.199997 0 0 1 780.700012 343.000015 A 74.199997 74.199997 0 0 1 854.900009 417.200012 Z" class="st8" style="fill: rgb(255, 176, 0);"/>
			</g>
			<g>
				<path d="M 854.900009 405.799988 A 74.199997 74.199997 0 0 1 780.700012 479.999985 A 74.199997 74.199997 0 0 1 706.500015 405.799988 A 74.199997 74.199997 0 0 1 780.700012 331.599991 A 74.199997 74.199997 0 0 1 854.900009 405.799988 Z" class="st9" style="fill: rgb(255, 213, 0);"/>
			</g>
			<g>
				<path class="st10" d="M780.8,466l0-5.3c4.1,0,8.2-0.5,12.2-1.4l1.2,5.2C789.8,465.5,785.3,466,780.8,466z M767.4,464.6&#10;&#9;&#9;&#9;&#9;&#9;c-4.4-1-8.7-2.5-12.7-4.4l2.3-4.8c3.7,1.8,7.6,3.1,11.6,4L767.4,464.6z M806.9,460.1l-2.3-4.8c3.7-1.8,7.2-4,10.4-6.6l3.3,4.2&#10;&#9;&#9;&#9;&#9;&#9;C814.8,455.7,811,458.1,806.9,460.1z M743.2,453c-3.5-2.8-6.7-6-9.5-9.5l4.2-3.3c2.6,3.2,5.5,6.1,8.7,8.7L743.2,453z&#10;&#9;&#9;&#9;&#9;&#9; M827.9,443.3l-4.2-3.3c2.6-3.2,4.8-6.7,6.5-10.4l4.8,2.3C833.1,436,830.7,439.8,827.9,443.3z M726.5,432&#10;&#9;&#9;&#9;&#9;&#9;c-2-4.1-3.5-8.3-4.5-12.7l5.2-1.2c0.9,4,2.3,7.9,4.1,11.6L726.5,432z M839.5,419.2l-5.2-1.2c0.9-4,1.4-8.1,1.4-12.2l0-0.2l5.3,0&#10;&#9;&#9;&#9;&#9;&#9;l0,0.3C841,410.3,840.5,414.8,839.5,419.2z M725.8,405.9h-5.3l0-0.1c0-4.5,0.5-9,1.5-13.3l5.2,1.2c-0.9,3.9-1.3,8-1.3,12.1&#10;&#9;&#9;&#9;&#9;&#9;L725.8,405.9z M834.3,393.3c-0.9-4-2.3-7.9-4.1-11.6l4.8-2.3c2,4.1,3.5,8.3,4.5,12.7L834.3,393.3z M731.2,382.1l-4.8-2.3&#10;&#9;&#9;&#9;&#9;&#9;c1.9-4.1,4.4-7.9,7.2-11.4l4.2,3.3C735.2,374.9,733,378.4,731.2,382.1z M823.6,371.4c-2.6-3.2-5.5-6.1-8.7-8.7l3.3-4.2&#10;&#9;&#9;&#9;&#9;&#9;c3.5,2.8,6.7,6,9.6,9.5L823.6,371.4z M746.4,362.9l-3.3-4.2c3.5-2.8,7.3-5.2,11.4-7.2l2.3,4.8&#10;&#9;&#9;&#9;&#9;&#9;C753.1,358.1,749.6,360.4,746.4,362.9z M804.4,356.2c-3.7-1.8-7.6-3.1-11.6-4l1.2-5.2c4.4,1,8.7,2.5,12.8,4.4L804.4,356.2z&#10;&#9;&#9;&#9;&#9;&#9; M768.4,352.3l-1.2-5.2c4.4-1,8.9-1.5,13.4-1.5l0,5.3C776.4,350.9,772.3,351.3,768.4,352.3z" style="fill: rgb(236, 145, 0);"/>
			</g>
		</g>
	</g>
	<g>
		<g>
			<g>
				<g>
					<g class="st5">
						<path class="st8" d="M838.4,793l0,13.5c0,7.3,4.8,14.7,14.5,20.2c30.2,17.5,83.6,5.5,83.6-20l0-13.5L838.4,793z" style="fill: rgb(255, 176, 0);"/>
						<g>
							<path class="st9" d="M922.1,773c19.2,11.1,19.3,29.1,0.2,40.2c-19.1,11.1-50.2,11.1-69.4,0c-19.2-11.1-19.3-29.1-0.2-40.2&#10;&#9;&#9;&#9;&#9;&#9;&#9;&#9;&#9;C871.8,761.9,902.9,761.9,922.1,773z" style="fill: rgb(255, 213, 0);"/>
						</g>
					</g>
				</g>
				<g>
					<g>
						<path class="st10" d="M915.9,809.4l-0.1,0.1c-2.1,1.2-4.4,2.3-7,3.2l-1.9-1.7c2.3-0.8,4.4-1.8,6.3-2.9l0.1-0.1L915.9,809.4z" style="fill: rgb(236, 145, 0);"/>
					</g>
					<g>
						<path class="st10" d="M891.7,814.1c2.7-0.2,5.4-0.5,7.9-1l1.2,1.9c-2.8,0.6-5.7,1-8.7,1.1L891.7,814.1z" style="fill: rgb(236, 145, 0);"/>
					</g>
					<g>
						<path class="st10" d="M927.1,790.5c0.4,1.7,0.4,3.4,0.1,5.2l-3.5-0.2c0.3-1.6,0.3-3.2-0.1-4.7L927.1,790.5z" style="fill: rgb(236, 145, 0);"/>
					</g>
					<g>
						<path class="st10" d="M875.6,813c2.6,0.5,5.2,0.9,7.9,1l-0.4,2c-3-0.2-5.9-0.6-8.7-1.1L875.6,813z" style="fill: rgb(236, 145, 0);"/>
					</g>
					<g>
						<path class="st10" d="M921.1,780.8c1.6,1.5,2.9,3,3.9,4.6l-3.3,0.7c-0.9-1.5-2.1-2.9-3.6-4.2L921.1,780.8z" style="fill: rgb(236, 145, 0);"/>
					</g>
					<g>
						<path class="st10" d="M861.9,808c1.9,1.1,4.1,2.1,6.4,2.9l-1.9,1.7c-2.5-0.9-4.9-2-7-3.2L861.9,808z" style="fill: rgb(236, 145, 0);"/>
					</g>
					<g>
						<path class="st10" d="M908.5,773.6c2.5,0.9,4.9,2,7,3.2l-2.5,1.4c-1.9-1.1-4.1-2.1-6.4-2.9L908.5,773.6z" style="fill: rgb(236, 145, 0);"/>
					</g>
					<g>
						<path class="st10" d="M849.9,800.8l3.3-0.7c0.9,1.5,2.1,2.9,3.6,4.2l-3,1.1C852.3,804,850.9,802.4,849.9,800.8z" style="fill: rgb(236, 145, 0);"/>
					</g>
					<g>
						<path class="st10" d="M851.4,790.8c-0.3,1.6-0.3,3.2,0,4.7l-3.5,0.2c-0.4-1.7-0.4-3.5,0-5.2L851.4,790.8z" style="fill: rgb(236, 145, 0);"/>
					</g>
					<g>
						<path class="st10" d="M853.6,780.9l3,1.1c-1.4,1.3-2.6,2.8-3.5,4.2l-3.3-0.7C850.8,783.9,852.1,782.4,853.6,780.9z" style="fill: rgb(236, 145, 0);"/>
					</g>
					<g>
						<path class="st10" d="M861.7,778.3L861.7,778.3l-2.6-1.4l0,0c2.1-1.2,4.4-2.3,6.9-3.2l1.9,1.7&#10;&#9;&#9;&#9;&#9;&#9;&#9;&#9;C865.8,776.2,863.6,777.2,861.7,778.3z" style="fill: rgb(236, 145, 0);"/>
					</g>
					<g>
						<path class="st10" d="M883.2,772.2c-2.7,0.2-5.4,0.5-7.9,1.1l-1.2-1.9c2.8-0.6,5.7-1,8.7-1.2L883.2,772.2z" style="fill: rgb(236, 145, 0);"/>
					</g>
					<g>
						<path class="st10" d="M899.3,773.3c-2.6-0.5-5.2-0.9-7.9-1l0.4-2c3,0.2,5.9,0.6,8.7,1.1L899.3,773.3z" style="fill: rgb(236, 145, 0);"/>
					</g>
					<g>
						<path class="st10" d="M921.4,805.4l-3-1.1c1.4-1.3,2.6-2.8,3.5-4.3l3.3,0.7C924.3,802.3,923,803.9,921.4,805.4z" style="fill: rgb(236, 145, 0);"/>
					</g>
				</g>
			</g>
			<g>
				<g>
					<g class="st5">
						<path class="st8" d="M838.4,776.7l0,13.5c0,7.3,4.8,14.7,14.5,20.2c30.2,17.5,83.6,5.5,83.6-20l0-13.5L838.4,776.7z" style="fill: rgb(255, 176, 0);"/>
						<g>
							<path class="st9" d="M922.1,756.8c19.2,11.1,19.3,29.1,0.2,40.2c-19.1,11.1-50.2,11.1-69.4,0c-19.2-11.1-19.3-29.1-0.2-40.2&#10;&#9;&#9;&#9;&#9;&#9;&#9;&#9;&#9;C871.8,745.7,902.9,745.7,922.1,756.8z" style="fill: rgb(255, 213, 0);"/>
						</g>
					</g>
				</g>
				<g>
					<g>
						<path class="st10" d="M915.9,793.1l-0.1,0.1c-2.1,1.2-4.4,2.3-7,3.2l-1.9-1.7c2.3-0.8,4.4-1.8,6.3-2.9l0.1-0.1L915.9,793.1z" style="fill: rgb(236, 145, 0);"/>
					</g>
					<g>
						<path class="st10" d="M891.7,797.8c2.7-0.2,5.4-0.5,7.9-1l1.2,1.9c-2.8,0.6-5.7,1-8.7,1.1L891.7,797.8z" style="fill: rgb(236, 145, 0);"/>
					</g>
					<g>
						<path class="st10" d="M927.1,774.2c0.4,1.7,0.4,3.4,0.1,5.2l-3.5-0.2c0.3-1.6,0.3-3.2-0.1-4.7L927.1,774.2z" style="fill: rgb(236, 145, 0);"/>
					</g>
					<g>
						<path class="st10" d="M875.6,796.7c2.6,0.5,5.2,0.9,7.9,1l-0.4,2c-3-0.2-5.9-0.6-8.7-1.1L875.6,796.7z" style="fill: rgb(236, 145, 0);"/>
					</g>
					<g>
						<path class="st10" d="M921.1,764.5c1.6,1.5,2.9,3,3.9,4.6l-3.3,0.7c-0.9-1.5-2.1-2.9-3.6-4.2L921.1,764.5z" style="fill: rgb(236, 145, 0);"/>
					</g>
					<g>
						<path class="st10" d="M861.9,791.8c1.9,1.1,4.1,2.1,6.4,2.9l-1.9,1.7c-2.5-0.9-4.9-2-7-3.2L861.9,791.8z" style="fill: rgb(236, 145, 0);"/>
					</g>
					<g>
						<path class="st10" d="M908.5,757.3c2.5,0.9,4.9,2,7,3.2l-2.5,1.4c-1.9-1.1-4.1-2.1-6.4-2.9L908.5,757.3z" style="fill: rgb(236, 145, 0);"/>
					</g>
					<g>
						<path class="st10" d="M849.9,784.5l3.3-0.7c0.9,1.5,2.1,2.9,3.6,4.2l-3,1.1C852.3,787.7,850.9,786.1,849.9,784.5z" style="fill: rgb(236, 145, 0);"/>
					</g>
					<g>
						<path class="st10" d="M851.4,774.5c-0.3,1.6-0.3,3.2,0,4.7l-3.5,0.2c-0.4-1.7-0.4-3.5,0-5.2L851.4,774.5z" style="fill: rgb(236, 145, 0);"/>
					</g>
					<g>
						<path class="st10" d="M853.6,764.6l3,1.1c-1.4,1.3-2.6,2.8-3.5,4.2l-3.3-0.7C850.8,767.6,852.1,766.1,853.6,764.6z" style="fill: rgb(236, 145, 0);"/>
					</g>
					<g>
						<path class="st10" d="M861.7,762L861.7,762l-2.6-1.4l0,0c2.1-1.2,4.4-2.3,6.9-3.2l1.9,1.7C865.8,759.9,863.6,760.9,861.7,762z&#10;&#9;&#9;&#9;&#9;&#9;&#9;&#9;" style="fill: rgb(236, 145, 0);"/>
					</g>
					<g>
						<path class="st10" d="M883.2,756c-2.7,0.2-5.4,0.5-7.9,1.1l-1.2-1.9c2.8-0.6,5.7-1,8.7-1.2L883.2,756z" style="fill: rgb(236, 145, 0);"/>
					</g>
					<g>
						<path class="st10" d="M899.3,757c-2.6-0.5-5.2-0.9-7.9-1l0.4-2c3,0.2,5.9,0.6,8.7,1.1L899.3,757z" style="fill: rgb(236, 145, 0);"/>
					</g>
					<g>
						<path class="st10" d="M921.4,789.1l-3-1.1c1.4-1.3,2.6-2.8,3.5-4.3l3.3,0.7C924.3,786,923,787.6,921.4,789.1z" style="fill: rgb(236, 145, 0);"/>
					</g>
				</g>
			</g>
			<g>
				<g>
					<g class="st5">
						<path class="st8" d="M838.4,760.4l0,13.5c0,7.3,4.8,14.7,14.5,20.2c30.2,17.5,83.6,5.5,83.6-20l0-13.5L838.4,760.4z" style="fill: rgb(255, 176, 0);"/>
						<g>
							<path class="st9" d="M922.1,740.5c19.2,11.1,19.3,29.1,0.2,40.2c-19.1,11.1-50.2,11.1-69.4,0c-19.2-11.1-19.3-29.1-0.2-40.2&#10;&#9;&#9;&#9;&#9;&#9;&#9;&#9;&#9;C871.8,729.4,902.9,729.4,922.1,740.5z" style="fill: rgb(255, 213, 0);"/>
						</g>
					</g>
				</g>
				<g>
					<g>
						<path class="st10" d="M915.9,776.8l-0.1,0.1c-2.1,1.2-4.4,2.3-7,3.2l-1.9-1.7c2.3-0.8,4.4-1.8,6.3-2.9l0.1-0.1L915.9,776.8z" style="fill: rgb(236, 145, 0);"/>
					</g>
					<g>
						<path class="st10" d="M891.7,781.5c2.7-0.2,5.4-0.5,7.9-1l1.2,1.9c-2.8,0.6-5.7,1-8.7,1.1L891.7,781.5z" style="fill: rgb(236, 145, 0);"/>
					</g>
					<g>
						<path class="st10" d="M927.1,757.9c0.4,1.7,0.4,3.4,0.1,5.2l-3.5-0.2c0.3-1.6,0.3-3.2-0.1-4.7L927.1,757.9z" style="fill: rgb(236, 145, 0);"/>
					</g>
					<g>
						<path class="st10" d="M875.6,780.4c2.6,0.5,5.2,0.9,7.9,1l-0.4,2c-3-0.2-5.9-0.6-8.7-1.1L875.6,780.4z" style="fill: rgb(236, 145, 0);"/>
					</g>
					<g>
						<path class="st10" d="M921.1,748.2c1.6,1.5,2.9,3,3.9,4.6l-3.3,0.7c-0.9-1.5-2.1-2.9-3.6-4.2L921.1,748.2z" style="fill: rgb(236, 145, 0);"/>
					</g>
					<g>
						<path class="st10" d="M861.9,775.5c1.9,1.1,4.1,2.1,6.4,2.9l-1.9,1.7c-2.5-0.9-4.9-2-7-3.2L861.9,775.5z" style="fill: rgb(236, 145, 0);"/>
					</g>
					<g>
						<path class="st10" d="M908.5,741c2.5,0.9,4.9,2,7,3.2l-2.5,1.4c-1.9-1.1-4.1-2.1-6.4-2.9L908.5,741z" style="fill: rgb(236, 145, 0);"/>
					</g>
					<g>
						<path class="st10" d="M849.9,768.2l3.3-0.7c0.9,1.5,2.1,2.9,3.6,4.2l-3,1.1C852.3,771.4,850.9,769.9,849.9,768.2z" style="fill: rgb(236, 145, 0);"/>
					</g>
					<g>
						<path class="st10" d="M851.4,758.2c-0.3,1.6-0.3,3.2,0,4.7l-3.5,0.2c-0.4-1.7-0.4-3.5,0-5.2L851.4,758.2z" style="fill: rgb(236, 145, 0);"/>
					</g>
					<g>
						<path class="st10" d="M853.6,748.3l3,1.1c-1.4,1.3-2.6,2.8-3.5,4.2l-3.3-0.7C850.8,751.4,852.1,749.8,853.6,748.3z" style="fill: rgb(236, 145, 0);"/>
					</g>
					<g>
						<path class="st10" d="M861.7,745.7L861.7,745.7l-2.6-1.4l0,0c2.1-1.2,4.4-2.3,6.9-3.2l1.9,1.7&#10;&#9;&#9;&#9;&#9;&#9;&#9;&#9;C865.8,743.6,863.6,744.6,861.7,745.7z" style="fill: rgb(236, 145, 0);"/>
					</g>
					<g>
						<path class="st10" d="M883.2,739.7c-2.7,0.2-5.4,0.5-7.9,1.1l-1.2-1.9c2.8-0.6,5.7-1,8.7-1.2L883.2,739.7z" style="fill: rgb(236, 145, 0);"/>
					</g>
					<g>
						<path class="st10" d="M899.3,740.7c-2.6-0.5-5.2-0.9-7.9-1l0.4-2c3,0.2,5.9,0.6,8.7,1.1L899.3,740.7z" style="fill: rgb(236, 145, 0);"/>
					</g>
					<g>
						<path class="st10" d="M921.4,772.8l-3-1.1c1.4-1.3,2.6-2.8,3.5-4.3l3.3,0.7C924.3,769.7,923,771.3,921.4,772.8z" style="fill: rgb(236, 145, 0);"/>
					</g>
				</g>
			</g>
			<g>
				<g>
					<g class="st5">
						<path class="st8" d="M838.4,744.1l0,13.5c0,7.3,4.8,14.7,14.5,20.2c30.2,17.5,83.6,5.5,83.6-20l0-13.5L838.4,744.1z" style="fill: rgb(255, 176, 0);"/>
						<g>
							<path class="st9" d="M922.1,724.2c19.2,11.1,19.3,29.1,0.2,40.2c-19.1,11.1-50.2,11.1-69.4,0c-19.2-11.1-19.3-29.1-0.2-40.2&#10;&#9;&#9;&#9;&#9;&#9;&#9;&#9;&#9;C871.8,713.1,902.9,713.1,922.1,724.2z" style="fill: rgb(255, 213, 0);"/>
						</g>
					</g>
				</g>
				<g>
					<g>
						<path class="st10" d="M915.9,760.5l-0.1,0.1c-2.1,1.2-4.4,2.3-7,3.2l-1.9-1.7c2.3-0.8,4.4-1.8,6.3-2.9l0.1-0.1L915.9,760.5z" style="fill: rgb(236, 145, 0);"/>
					</g>
					<g>
						<path class="st10" d="M891.7,765.2c2.7-0.2,5.4-0.5,7.9-1l1.2,1.9c-2.8,0.6-5.7,1-8.7,1.1L891.7,765.2z" style="fill: rgb(236, 145, 0);"/>
					</g>
					<g>
						<path class="st10" d="M927.1,741.6c0.4,1.7,0.4,3.4,0.1,5.2l-3.5-0.2c0.3-1.6,0.3-3.2-0.1-4.7L927.1,741.6z" style="fill: rgb(236, 145, 0);"/>
					</g>
					<g>
						<path class="st10" d="M875.6,764.2c2.6,0.5,5.2,0.9,7.9,1l-0.4,2c-3-0.2-5.9-0.6-8.7-1.1L875.6,764.2z" style="fill: rgb(236, 145, 0);"/>
					</g>
					<g>
						<path class="st10" d="M921.1,731.9c1.6,1.5,2.9,3,3.9,4.6l-3.3,0.7c-0.9-1.5-2.1-2.9-3.6-4.2L921.1,731.9z" style="fill: rgb(236, 145, 0);"/>
					</g>
					<g>
						<path class="st10" d="M861.9,759.2c1.9,1.1,4.1,2.1,6.4,2.9l-1.9,1.7c-2.5-0.9-4.9-2-7-3.2L861.9,759.2z" style="fill: rgb(236, 145, 0);"/>
					</g>
					<g>
						<path class="st10" d="M908.5,724.7c2.5,0.9,4.9,2,7,3.2l-2.5,1.4c-1.9-1.1-4.1-2.1-6.4-2.9L908.5,724.7z" style="fill: rgb(236, 145, 0);"/>
					</g>
					<g>
						<path class="st10" d="M849.9,751.9l3.3-0.7c0.9,1.5,2.1,2.9,3.6,4.2l-3,1.1C852.3,755.1,850.9,753.6,849.9,751.9z" style="fill: rgb(236, 145, 0);"/>
					</g>
					<g>
						<path class="st10" d="M851.4,742c-0.3,1.6-0.3,3.2,0,4.7l-3.5,0.2c-0.4-1.7-0.4-3.5,0-5.2L851.4,742z" style="fill: rgb(236, 145, 0);"/>
					</g>
					<g>
						<path class="st10" d="M853.6,732l3,1.1c-1.4,1.3-2.6,2.8-3.5,4.2l-3.3-0.7C850.8,735.1,852.1,733.5,853.6,732z" style="fill: rgb(236, 145, 0);"/>
					</g>
					<g>
						<path class="st10" d="M861.7,729.4L861.7,729.4l-2.6-1.4l0,0c2.1-1.2,4.4-2.3,6.9-3.2l1.9,1.7&#10;&#9;&#9;&#9;&#9;&#9;&#9;&#9;C865.8,727.3,863.6,728.3,861.7,729.4z" style="fill: rgb(236, 145, 0);"/>
					</g>
					<g>
						<path class="st10" d="M883.2,723.4c-2.7,0.2-5.4,0.5-7.9,1.1l-1.2-1.9c2.8-0.6,5.7-1,8.7-1.2L883.2,723.4z" style="fill: rgb(236, 145, 0);"/>
					</g>
					<g>
						<path class="st10" d="M899.3,724.4c-2.6-0.5-5.2-0.9-7.9-1l0.4-2c3,0.2,5.9,0.6,8.7,1.1L899.3,724.4z" style="fill: rgb(236, 145, 0);"/>
					</g>
					<g>
						<path class="st10" d="M921.4,756.5l-3-1.1c1.4-1.3,2.6-2.8,3.5-4.3l3.3,0.7C924.3,753.5,923,755,921.4,756.5z" style="fill: rgb(236, 145, 0);"/>
					</g>
				</g>
			</g>
			<g>
				<g>
					<g class="st5">
						<path class="st8" d="M838.4,727.9l0,13.5c0,7.3,4.8,14.7,14.5,20.2c30.2,17.5,83.6,5.5,83.6-20l0-13.5L838.4,727.9z" style="fill: rgb(255, 176, 0);"/>
						<g>
							<path class="st9" d="M922.1,707.9c19.2,11.1,19.3,29.1,0.2,40.2c-19.1,11.1-50.2,11.1-69.4,0c-19.2-11.1-19.3-29.1-0.2-40.2&#10;&#9;&#9;&#9;&#9;&#9;&#9;&#9;&#9;C871.8,696.8,902.9,696.8,922.1,707.9z" style="fill: rgb(255, 213, 0);"/>
						</g>
					</g>
				</g>
				<g>
					<g>
						<path class="st10" d="M915.9,744.3l-0.1,0.1c-2.1,1.2-4.4,2.3-7,3.2l-1.9-1.7c2.3-0.8,4.4-1.8,6.3-2.9l0.1-0.1L915.9,744.3z" style="fill: rgb(236, 145, 0);"/>
					</g>
					<g>
						<path class="st10" d="M891.7,748.9c2.7-0.2,5.4-0.5,7.9-1l1.2,1.9c-2.8,0.6-5.7,1-8.7,1.1L891.7,748.9z" style="fill: rgb(236, 145, 0);"/>
					</g>
					<g>
						<path class="st10" d="M927.1,725.3c0.4,1.7,0.4,3.5,0.1,5.2l-3.5-0.2c0.3-1.6,0.3-3.2-0.1-4.7L927.1,725.3z" style="fill: rgb(236, 145, 0);"/>
					</g>
					<g>
						<path class="st10" d="M875.6,747.9c2.6,0.5,5.2,0.9,7.9,1l-0.4,2c-3-0.2-5.9-0.6-8.7-1.1L875.6,747.9z" style="fill: rgb(236, 145, 0);"/>
					</g>
					<g>
						<path class="st10" d="M921.1,715.7c1.6,1.5,2.9,3,3.9,4.6l-3.3,0.7c-0.9-1.5-2.1-2.9-3.6-4.2L921.1,715.7z" style="fill: rgb(236, 145, 0);"/>
					</g>
					<g>
						<path class="st10" d="M861.9,742.9c1.9,1.1,4.1,2.1,6.4,2.9l-1.9,1.7c-2.5-0.9-4.9-2-7-3.2L861.9,742.9z" style="fill: rgb(236, 145, 0);"/>
					</g>
					<g>
						<path class="st10" d="M908.5,708.4c2.5,0.9,4.9,2,7,3.2l-2.5,1.4c-1.9-1.1-4.1-2.1-6.4-2.9L908.5,708.4z" style="fill: rgb(236, 145, 0);"/>
					</g>
					<g>
						<path class="st10" d="M849.9,735.7l3.3-0.7c0.9,1.5,2.1,2.9,3.6,4.2l-3,1.1C852.3,738.8,850.9,737.3,849.9,735.7z" style="fill: rgb(236, 145, 0);"/>
					</g>
					<g>
						<path class="st10" d="M851.4,725.7c-0.3,1.6-0.3,3.2,0,4.7l-3.5,0.2c-0.4-1.7-0.4-3.5,0-5.2L851.4,725.7z" style="fill: rgb(236, 145, 0);"/>
					</g>
					<g>
						<path class="st10" d="M853.6,715.8l3,1.1c-1.4,1.3-2.6,2.8-3.5,4.2l-3.3-0.7C850.8,718.8,852.1,717.2,853.6,715.8z" style="fill: rgb(236, 145, 0);"/>
					</g>
					<g>
						<path class="st10" d="M861.7,713.1L861.7,713.1l-2.6-1.4l0,0c2.1-1.2,4.4-2.3,6.9-3.2l1.9,1.7&#10;&#9;&#9;&#9;&#9;&#9;&#9;&#9;C865.8,711,863.6,712,861.7,713.1z" style="fill: rgb(236, 145, 0);"/>
					</g>
					<g>
						<path class="st10" d="M883.2,707.1c-2.7,0.2-5.4,0.5-7.9,1.1l-1.2-1.9c2.8-0.6,5.7-1,8.7-1.2L883.2,707.1z" style="fill: rgb(236, 145, 0);"/>
					</g>
					<g>
						<path class="st10" d="M899.3,708.1c-2.6-0.5-5.2-0.9-7.9-1l0.4-2c3,0.2,5.9,0.6,8.7,1.1L899.3,708.1z" style="fill: rgb(236, 145, 0);"/>
					</g>
					<g>
						<path class="st10" d="M921.4,740.2l-3-1.1c1.4-1.3,2.6-2.8,3.5-4.3l3.3,0.7C924.3,737.2,923,738.7,921.4,740.2z" style="fill: rgb(236, 145, 0);"/>
					</g>
				</g>
			</g>
		</g>
		<g>
			<g>
				<g>
					<g class="st5">
						<path class="st8" d="M682.4,777.4l0,13.5c0,7.3,4.8,14.7,14.5,20.2c30.2,17.5,83.6,5.5,83.6-20l0-13.5L682.4,777.4z" style="fill: rgb(255, 176, 0);"/>
						<g>
							<path class="st9" d="M766.1,757.5c19.2,11.1,19.3,29.1,0.2,40.2s-50.2,11.1-69.4,0c-19.2-11.1-19.3-29.1-0.2-40.2&#10;&#9;&#9;&#9;&#9;&#9;&#9;&#9;&#9;S746.8,746.4,766.1,757.5z" style="fill: rgb(255, 213, 0);"/>
						</g>
					</g>
				</g>
				<g>
					<g>
						<path class="st10" d="M759.9,793.8l-0.1,0.1c-2.1,1.2-4.4,2.3-7,3.2l-1.9-1.7c2.3-0.8,4.4-1.8,6.3-2.9l0.1-0.1L759.9,793.8z" style="fill: rgb(236, 145, 0);"/>
					</g>
					<g>
						<path class="st10" d="M735.7,798.5c2.7-0.2,5.4-0.5,7.9-1l1.2,1.9c-2.8,0.6-5.7,1-8.7,1.1L735.7,798.5z" style="fill: rgb(236, 145, 0);"/>
					</g>
					<g>
						<path class="st10" d="M771.1,774.9c0.4,1.7,0.4,3.4,0.1,5.2l-3.5-0.2c0.3-1.6,0.3-3.2-0.1-4.7L771.1,774.9z" style="fill: rgb(236, 145, 0);"/>
					</g>
					<g>
						<path class="st10" d="M719.6,797.4c2.6,0.5,5.2,0.9,7.9,1l-0.4,2c-3-0.2-5.9-0.6-8.7-1.1L719.6,797.4z" style="fill: rgb(236, 145, 0);"/>
					</g>
					<g>
						<path class="st10" d="M765.1,765.2c1.6,1.5,2.9,3,3.9,4.6l-3.3,0.7c-0.9-1.5-2.1-2.9-3.6-4.2L765.1,765.2z" style="fill: rgb(236, 145, 0);"/>
					</g>
					<g>
						<path class="st10" d="M705.9,792.5c1.9,1.1,4.1,2.1,6.4,2.9l-1.9,1.7c-2.5-0.9-4.9-2-7-3.2L705.9,792.5z" style="fill: rgb(236, 145, 0);"/>
					</g>
					<g>
						<path class="st10" d="M752.5,758c2.5,0.9,4.9,2,7,3.2l-2.5,1.4c-1.9-1.1-4.1-2.1-6.4-2.9L752.5,758z" style="fill: rgb(236, 145, 0);"/>
					</g>
					<g>
						<path class="st10" d="M693.9,785.2l3.3-0.7c0.9,1.5,2.1,2.9,3.6,4.2l-3,1.1C696.2,788.4,694.9,786.8,693.9,785.2z" style="fill: rgb(236, 145, 0);"/>
					</g>
					<g>
						<path class="st10" d="M695.4,775.2c-0.3,1.6-0.3,3.2,0,4.7l-3.5,0.2c-0.4-1.7-0.4-3.5,0-5.2L695.4,775.2z" style="fill: rgb(236, 145, 0);"/>
					</g>
					<g>
						<path class="st10" d="M697.6,765.3l3,1.1c-1.4,1.3-2.6,2.8-3.5,4.2l-3.3-0.7C694.8,768.3,696,766.8,697.6,765.3z" style="fill: rgb(236, 145, 0);"/>
					</g>
					<g>
						<path class="st10" d="M705.7,762.7L705.7,762.7l-2.6-1.4l0,0c2.1-1.2,4.4-2.3,6.9-3.2l1.9,1.7&#10;&#9;&#9;&#9;&#9;&#9;&#9;&#9;C709.7,760.6,707.6,761.6,705.7,762.7z" style="fill: rgb(236, 145, 0);"/>
					</g>
					<g>
						<path class="st10" d="M727.2,756.6c-2.7,0.2-5.4,0.5-7.9,1.1l-1.2-1.9c2.8-0.6,5.7-1,8.7-1.2L727.2,756.6z" style="fill: rgb(236, 145, 0);"/>
					</g>
					<g>
						<path class="st10" d="M743.3,757.7c-2.6-0.5-5.2-0.9-7.9-1l0.4-2c3,0.2,5.9,0.6,8.7,1.1L743.3,757.7z" style="fill: rgb(236, 145, 0);"/>
					</g>
					<g>
						<path class="st10" d="M765.4,789.8l-3-1.1c1.4-1.3,2.6-2.8,3.5-4.3l3.3,0.7C768.2,786.7,767,788.3,765.4,789.8z" style="fill: rgb(236, 145, 0);"/>
					</g>
				</g>
			</g>
			<g>
				<g>
					<g class="st5">
						<path class="st8" d="M682.4,761.1l0,13.5c0,7.3,4.8,14.7,14.5,20.2c30.2,17.5,83.6,5.5,83.6-20l0-13.5L682.4,761.1z" style="fill: rgb(255, 176, 0);"/>
						<g>
							<path class="st9" d="M766.1,741.2c19.2,11.1,19.3,29.1,0.2,40.2s-50.2,11.1-69.4,0c-19.2-11.1-19.3-29.1-0.2-40.2&#10;&#9;&#9;&#9;&#9;&#9;&#9;&#9;&#9;S746.8,730.1,766.1,741.2z" style="fill: rgb(255, 213, 0);"/>
						</g>
					</g>
				</g>
				<g>
					<g>
						<path class="st10" d="M759.9,777.5l-0.1,0.1c-2.1,1.2-4.4,2.3-7,3.2l-1.9-1.7c2.3-0.8,4.4-1.8,6.3-2.9l0.1-0.1L759.9,777.5z" style="fill: rgb(236, 145, 0);"/>
					</g>
					<g>
						<path class="st10" d="M735.7,782.2c2.7-0.2,5.4-0.5,7.9-1l1.2,1.9c-2.8,0.6-5.7,1-8.7,1.1L735.7,782.2z" style="fill: rgb(236, 145, 0);"/>
					</g>
					<g>
						<path class="st10" d="M771.1,758.6c0.4,1.7,0.4,3.4,0.1,5.2l-3.5-0.2c0.3-1.6,0.3-3.2-0.1-4.7L771.1,758.6z" style="fill: rgb(236, 145, 0);"/>
					</g>
					<g>
						<path class="st10" d="M719.6,781.1c2.6,0.5,5.2,0.9,7.9,1l-0.4,2c-3-0.2-5.9-0.6-8.7-1.1L719.6,781.1z" style="fill: rgb(236, 145, 0);"/>
					</g>
					<g>
						<path class="st10" d="M765.1,748.9c1.6,1.5,2.9,3,3.9,4.6l-3.3,0.7c-0.9-1.5-2.1-2.9-3.6-4.2L765.1,748.9z" style="fill: rgb(236, 145, 0);"/>
					</g>
					<g>
						<path class="st10" d="M705.9,776.2c1.9,1.1,4.1,2.1,6.4,2.9l-1.9,1.7c-2.5-0.9-4.9-2-7-3.2L705.9,776.2z" style="fill: rgb(236, 145, 0);"/>
					</g>
					<g>
						<path class="st10" d="M752.5,741.7c2.5,0.9,4.9,2,7,3.2l-2.5,1.4c-1.9-1.1-4.1-2.1-6.4-2.9L752.5,741.7z" style="fill: rgb(236, 145, 0);"/>
					</g>
					<g>
						<path class="st10" d="M693.9,768.9l3.3-0.7c0.9,1.5,2.1,2.9,3.6,4.2l-3,1.1C696.2,772.1,694.9,770.6,693.9,768.9z" style="fill: rgb(236, 145, 0);"/>
					</g>
					<g>
						<path class="st10" d="M695.4,758.9c-0.3,1.6-0.3,3.2,0,4.7l-3.5,0.2c-0.4-1.7-0.4-3.5,0-5.2L695.4,758.9z" style="fill: rgb(236, 145, 0);"/>
					</g>
					<g>
						<path class="st10" d="M697.6,749l3,1.1c-1.4,1.3-2.6,2.8-3.5,4.2l-3.3-0.7C694.8,752.1,696,750.5,697.6,749z" style="fill: rgb(236, 145, 0);"/>
					</g>
					<g>
						<path class="st10" d="M705.7,746.4L705.7,746.4l-2.6-1.4l0,0c2.1-1.2,4.4-2.3,6.9-3.2l1.9,1.7&#10;&#9;&#9;&#9;&#9;&#9;&#9;&#9;C709.7,744.3,707.6,745.3,705.7,746.4z" style="fill: rgb(236, 145, 0);"/>
					</g>
					<g>
						<path class="st10" d="M727.2,740.4c-2.7,0.2-5.4,0.5-7.9,1.1l-1.2-1.9c2.8-0.6,5.7-1,8.7-1.2L727.2,740.4z" style="fill: rgb(236, 145, 0);"/>
					</g>
					<g>
						<path class="st10" d="M743.3,741.4c-2.6-0.5-5.2-0.9-7.9-1l0.4-2c3,0.2,5.9,0.6,8.7,1.1L743.3,741.4z" style="fill: rgb(236, 145, 0);"/>
					</g>
					<g>
						<path class="st10" d="M765.4,773.5l-3-1.1c1.4-1.3,2.6-2.8,3.5-4.3l3.3,0.7C768.2,770.4,767,772,765.4,773.5z" style="fill: rgb(236, 145, 0);"/>
					</g>
				</g>
			</g>
			<g>
				<g>
					<g class="st5">
						<path class="st8" d="M682.4,744.8l0,13.5c0,7.3,4.8,14.7,14.5,20.2c30.2,17.5,83.6,5.5,83.6-20l0-13.5L682.4,744.8z" style="fill: rgb(255, 176, 0);"/>
						<g>
							<path class="st9" d="M766.1,724.9c19.2,11.1,19.3,29.1,0.2,40.2s-50.2,11.1-69.4,0c-19.2-11.1-19.3-29.1-0.2-40.2&#10;&#9;&#9;&#9;&#9;&#9;&#9;&#9;&#9;S746.8,713.8,766.1,724.9z" style="fill: rgb(255, 213, 0);"/>
						</g>
					</g>
				</g>
				<g>
					<g>
						<path class="st10" d="M759.9,761.2l-0.1,0.1c-2.1,1.2-4.4,2.3-7,3.2l-1.9-1.7c2.3-0.8,4.4-1.8,6.3-2.9l0.1-0.1L759.9,761.2z" style="fill: rgb(236, 145, 0);"/>
					</g>
					<g>
						<path class="st10" d="M735.7,765.9c2.7-0.2,5.4-0.5,7.9-1l1.2,1.9c-2.8,0.6-5.7,1-8.7,1.1L735.7,765.9z" style="fill: rgb(236, 145, 0);"/>
					</g>
					<g>
						<path class="st10" d="M771.1,742.3c0.4,1.7,0.4,3.4,0.1,5.2l-3.5-0.2c0.3-1.6,0.3-3.2-0.1-4.7L771.1,742.3z" style="fill: rgb(236, 145, 0);"/>
					</g>
					<g>
						<path class="st10" d="M719.6,764.9c2.6,0.5,5.2,0.9,7.9,1l-0.4,2c-3-0.2-5.9-0.6-8.7-1.1L719.6,764.9z" style="fill: rgb(236, 145, 0);"/>
					</g>
					<g>
						<path class="st10" d="M765.1,732.6c1.6,1.5,2.9,3,3.9,4.6l-3.3,0.7c-0.9-1.5-2.1-2.9-3.6-4.2L765.1,732.6z" style="fill: rgb(236, 145, 0);"/>
					</g>
					<g>
						<path class="st10" d="M705.9,759.9c1.9,1.1,4.1,2.1,6.4,2.9l-1.9,1.7c-2.5-0.9-4.9-2-7-3.2L705.9,759.9z" style="fill: rgb(236, 145, 0);"/>
					</g>
					<g>
						<path class="st10" d="M752.5,725.4c2.5,0.9,4.9,2,7,3.2l-2.5,1.4c-1.9-1.1-4.1-2.1-6.4-2.9L752.5,725.4z" style="fill: rgb(236, 145, 0);"/>
					</g>
					<g>
						<path class="st10" d="M693.9,752.6l3.3-0.7c0.9,1.5,2.1,2.9,3.6,4.2l-3,1.1C696.2,755.8,694.9,754.3,693.9,752.6z" style="fill: rgb(236, 145, 0);"/>
					</g>
					<g>
						<path class="st10" d="M695.4,742.7c-0.3,1.6-0.3,3.2,0,4.7l-3.5,0.2c-0.4-1.7-0.4-3.5,0-5.2L695.4,742.7z" style="fill: rgb(236, 145, 0);"/>
					</g>
					<g>
						<path class="st10" d="M697.6,732.7l3,1.1c-1.4,1.3-2.6,2.8-3.5,4.2l-3.3-0.7C694.8,735.8,696,734.2,697.6,732.7z" style="fill: rgb(236, 145, 0);"/>
					</g>
					<g>
						<path class="st10" d="M705.7,730.1L705.7,730.1l-2.6-1.4l0,0c2.1-1.2,4.4-2.3,6.9-3.2l1.9,1.7&#10;&#9;&#9;&#9;&#9;&#9;&#9;&#9;C709.7,728,707.6,729,705.7,730.1z" style="fill: rgb(236, 145, 0);"/>
					</g>
					<g>
						<path class="st10" d="M727.2,724.1c-2.7,0.2-5.4,0.5-7.9,1.1l-1.2-1.9c2.8-0.6,5.7-1,8.7-1.2L727.2,724.1z" style="fill: rgb(236, 145, 0);"/>
					</g>
					<g>
						<path class="st10" d="M743.3,725.1c-2.6-0.5-5.2-0.9-7.9-1l0.4-2c3,0.2,5.9,0.6,8.7,1.1L743.3,725.1z" style="fill: rgb(236, 145, 0);"/>
					</g>
					<g>
						<path class="st10" d="M765.4,757.2l-3-1.1c1.4-1.3,2.6-2.8,3.5-4.3l3.3,0.7C768.2,754.2,767,755.7,765.4,757.2z" style="fill: rgb(236, 145, 0);"/>
					</g>
				</g>
			</g>
			<g>
				<g>
					<g class="st5">
						<path class="st8" d="M682.4,728.6l0,13.5c0,7.3,4.8,14.7,14.5,20.2c30.2,17.5,83.6,5.5,83.6-20l0-13.5L682.4,728.6z" style="fill: rgb(255, 176, 0);"/>
						<g>
							<path class="st9" d="M766.1,708.6c19.2,11.1,19.3,29.1,0.2,40.2s-50.2,11.1-69.4,0c-19.2-11.1-19.3-29.1-0.2-40.2&#10;&#9;&#9;&#9;&#9;&#9;&#9;&#9;&#9;S746.8,697.5,766.1,708.6z" style="fill: rgb(255, 213, 0);"/>
						</g>
					</g>
				</g>
				<g>
					<g>
						<path class="st10" d="M759.9,744.9l-0.1,0.1c-2.1,1.2-4.4,2.3-7,3.2l-1.9-1.7c2.3-0.8,4.4-1.8,6.3-2.9l0.1-0.1L759.9,744.9z" style="fill: rgb(236, 145, 0);"/>
					</g>
					<g>
						<path class="st10" d="M735.7,749.6c2.7-0.2,5.4-0.5,7.9-1l1.2,1.9c-2.8,0.6-5.7,1-8.7,1.1L735.7,749.6z" style="fill: rgb(236, 145, 0);"/>
					</g>
					<g>
						<path class="st10" d="M771.1,726c0.4,1.7,0.4,3.4,0.1,5.2l-3.5-0.2c0.3-1.6,0.3-3.2-0.1-4.7L771.1,726z" style="fill: rgb(236, 145, 0);"/>
					</g>
					<g>
						<path class="st10" d="M719.6,748.6c2.6,0.5,5.2,0.9,7.9,1l-0.4,2c-3-0.2-5.9-0.6-8.7-1.1L719.6,748.6z" style="fill: rgb(236, 145, 0);"/>
					</g>
					<g>
						<path class="st10" d="M765.1,716.3c1.6,1.5,2.9,3,3.9,4.6l-3.3,0.7c-0.9-1.5-2.1-2.9-3.6-4.2L765.1,716.3z" style="fill: rgb(236, 145, 0);"/>
					</g>
					<g>
						<path class="st10" d="M705.9,743.6c1.9,1.1,4.1,2.1,6.4,2.9l-1.9,1.7c-2.5-0.9-4.9-2-7-3.2L705.9,743.6z" style="fill: rgb(236, 145, 0);"/>
					</g>
					<g>
						<path class="st10" d="M752.5,709.1c2.5,0.9,4.9,2,7,3.2l-2.5,1.4c-1.9-1.1-4.1-2.1-6.4-2.9L752.5,709.1z" style="fill: rgb(236, 145, 0);"/>
					</g>
					<g>
						<path class="st10" d="M693.9,736.3l3.3-0.7c0.9,1.5,2.1,2.9,3.6,4.2l-3,1.1C696.2,739.5,694.9,738,693.9,736.3z" style="fill: rgb(236, 145, 0);"/>
					</g>
					<g>
						<path class="st10" d="M695.4,726.4c-0.3,1.6-0.3,3.2,0,4.7l-3.5,0.2c-0.4-1.7-0.4-3.5,0-5.2L695.4,726.4z" style="fill: rgb(236, 145, 0);"/>
					</g>
					<g>
						<path class="st10" d="M697.6,716.4l3,1.1c-1.4,1.3-2.6,2.8-3.5,4.2l-3.3-0.7C694.8,719.5,696,717.9,697.6,716.4z" style="fill: rgb(236, 145, 0);"/>
					</g>
					<g>
						<path class="st10" d="M705.7,713.8L705.7,713.8l-2.6-1.4l0,0c2.1-1.2,4.4-2.3,6.9-3.2l1.9,1.7&#10;&#9;&#9;&#9;&#9;&#9;&#9;&#9;C709.7,711.7,707.6,712.7,705.7,713.8z" style="fill: rgb(236, 145, 0);"/>
					</g>
					<g>
						<path class="st10" d="M727.2,707.8c-2.7,0.2-5.4,0.5-7.9,1.1l-1.2-1.9c2.8-0.6,5.7-1,8.7-1.2L727.2,707.8z" style="fill: rgb(236, 145, 0);"/>
					</g>
					<g>
						<path class="st10" d="M743.3,708.8c-2.6-0.5-5.2-0.9-7.9-1l0.4-2c3,0.2,5.9,0.6,8.7,1.1L743.3,708.8z" style="fill: rgb(236, 145, 0);"/>
					</g>
					<g>
						<path class="st10" d="M765.4,740.9l-3-1.1c1.4-1.3,2.6-2.8,3.5-4.3l3.3,0.7C768.2,737.9,767,739.4,765.4,740.9z" style="fill: rgb(236, 145, 0);"/>
					</g>
				</g>
			</g>
			<g>
				<g>
					<g class="st5">
						<path class="st8" d="M682.4,712.3l0,13.5c0,7.3,4.8,14.7,14.5,20.2c30.2,17.5,83.6,5.5,83.6-20l0-13.5L682.4,712.3z" style="fill: rgb(255, 176, 0);"/>
						<g>
							<path class="st9" d="M766.1,692.3c19.2,11.1,19.3,29.1,0.2,40.2s-50.2,11.1-69.4,0c-19.2-11.1-19.3-29.1-0.2-40.2&#10;&#9;&#9;&#9;&#9;&#9;&#9;&#9;&#9;C715.8,681.2,746.8,681.2,766.1,692.3z" style="fill: rgb(255, 213, 0);"/>
						</g>
					</g>
				</g>
				<g>
					<g>
						<path class="st10" d="M759.9,728.7l-0.1,0.1c-2.1,1.2-4.4,2.3-7,3.2l-1.9-1.7c2.3-0.8,4.4-1.8,6.3-2.9l0.1-0.1L759.9,728.7z" style="fill: rgb(236, 145, 0);"/>
					</g>
					<g>
						<path class="st10" d="M735.7,733.3c2.7-0.2,5.4-0.5,7.9-1l1.2,1.9c-2.8,0.6-5.7,1-8.7,1.1L735.7,733.3z" style="fill: rgb(236, 145, 0);"/>
					</g>
					<g>
						<path class="st10" d="M771.1,709.7c0.4,1.7,0.4,3.4,0.1,5.2l-3.5-0.2c0.3-1.6,0.3-3.2-0.1-4.7L771.1,709.7z" style="fill: rgb(236, 145, 0);"/>
					</g>
					<g>
						<path class="st10" d="M719.6,732.3c2.6,0.5,5.2,0.9,7.9,1l-0.4,2c-3-0.2-5.9-0.6-8.7-1.1L719.6,732.3z" style="fill: rgb(236, 145, 0);"/>
					</g>
					<g>
						<path class="st10" d="M765.1,700.1c1.6,1.5,2.9,3,3.9,4.6l-3.3,0.7c-0.9-1.5-2.1-2.9-3.6-4.2L765.1,700.1z" style="fill: rgb(236, 145, 0);"/>
					</g>
					<g>
						<path class="st10" d="M705.9,727.3c1.9,1.1,4.1,2.1,6.4,2.9l-1.9,1.7c-2.5-0.9-4.9-2-7-3.2L705.9,727.3z" style="fill: rgb(236, 145, 0);"/>
					</g>
					<g>
						<path class="st10" d="M752.5,692.8c2.5,0.9,4.9,2,7,3.2l-2.5,1.4c-1.9-1.1-4.1-2.1-6.4-2.9L752.5,692.8z" style="fill: rgb(236, 145, 0);"/>
					</g>
					<g>
						<path class="st10" d="M693.9,720.1l3.3-0.7c0.9,1.5,2.1,2.9,3.6,4.2l-3,1.1C696.2,723.3,694.9,721.7,693.9,720.1z" style="fill: rgb(236, 145, 0);"/>
					</g>
					<g>
						<path class="st10" d="M695.4,710.1c-0.3,1.6-0.3,3.2,0,4.7l-3.5,0.2c-0.4-1.7-0.4-3.5,0-5.2L695.4,710.1z" style="fill: rgb(236, 145, 0);"/>
					</g>
					<g>
						<path class="st10" d="M697.6,700.2l3,1.1c-1.4,1.3-2.6,2.8-3.5,4.2l-3.3-0.7C694.8,703.2,696,701.6,697.6,700.2z" style="fill: rgb(236, 145, 0);"/>
					</g>
					<g>
						<path class="st10" d="M705.7,697.5L705.7,697.5l-2.6-1.4l0,0c2.1-1.2,4.4-2.3,6.9-3.2l1.9,1.7&#10;&#9;&#9;&#9;&#9;&#9;&#9;&#9;C709.7,695.4,707.6,696.4,705.7,697.5z" style="fill: rgb(236, 145, 0);"/>
					</g>
					<g>
						<path class="st10" d="M727.2,691.5c-2.7,0.2-5.4,0.5-7.9,1.1l-1.2-1.9c2.8-0.6,5.7-1,8.7-1.2L727.2,691.5z" style="fill: rgb(236, 145, 0);"/>
					</g>
					<g>
						<path class="st10" d="M743.3,692.5c-2.6-0.5-5.2-0.9-7.9-1l0.4-2c3,0.2,5.9,0.6,8.7,1.1L743.3,692.5z" style="fill: rgb(236, 145, 0);"/>
					</g>
					<g>
						<path class="st10" d="M765.4,724.6l-3-1.1c1.4-1.3,2.6-2.8,3.5-4.3l3.3,0.7C768.2,721.6,767,723.2,765.4,724.6z" style="fill: rgb(236, 145, 0);"/>
					</g>
				</g>
			</g>
		</g>
		<g>
			<g>
				<g>
					<g class="st5">
						<path class="st8" d="M744.5,827.9l0,13.5c0,7.3,4.8,14.7,14.5,20.2c30.2,17.5,83.6,5.5,83.6-20l0-13.5L744.5,827.9z" style="fill: rgb(255, 176, 0);"/>
						<g>
							<path class="st9" d="M828.1,807.9c19.2,11.1,19.3,29.1,0.2,40.2c-19.1,11.1-50.2,11.1-69.4,0c-19.2-11.1-19.3-29.1-0.2-40.2&#10;&#9;&#9;&#9;&#9;&#9;&#9;&#9;&#9;C777.8,796.8,808.9,796.8,828.1,807.9z" style="fill: rgb(255, 213, 0);"/>
						</g>
					</g>
				</g>
				<g>
					<g>
						<path class="st10" d="M821.9,844.3l-0.1,0.1c-2.1,1.2-4.4,2.3-7,3.2l-1.9-1.7c2.3-0.8,4.4-1.8,6.3-2.9l0.1-0.1L821.9,844.3z" style="fill: rgb(236, 145, 0);"/>
					</g>
					<g>
						<path class="st10" d="M797.8,848.9c2.7-0.2,5.4-0.5,7.9-1l1.2,1.9c-2.8,0.6-5.7,1-8.7,1.1L797.8,848.9z" style="fill: rgb(236, 145, 0);"/>
					</g>
					<g>
						<path class="st10" d="M833.1,825.3c0.4,1.7,0.4,3.5,0.1,5.2l-3.5-0.2c0.3-1.6,0.3-3.2-0.1-4.7L833.1,825.3z" style="fill: rgb(236, 145, 0);"/>
					</g>
					<g>
						<path class="st10" d="M781.7,847.9c2.6,0.5,5.2,0.9,7.9,1l-0.4,2c-3-0.2-5.9-0.6-8.7-1.1L781.7,847.9z" style="fill: rgb(236, 145, 0);"/>
					</g>
					<g>
						<path class="st10" d="M827.2,815.7c1.6,1.5,2.9,3,3.9,4.6l-3.3,0.7c-0.9-1.5-2.1-2.9-3.6-4.2L827.2,815.7z" style="fill: rgb(236, 145, 0);"/>
					</g>
					<g>
						<path class="st10" d="M768,842.9c1.9,1.1,4.1,2.1,6.4,2.9l-1.9,1.7c-2.5-0.9-4.9-2-7-3.2L768,842.9z" style="fill: rgb(236, 145, 0);"/>
					</g>
					<g>
						<path class="st10" d="M814.6,808.4c2.5,0.9,4.9,2,7,3.2l-2.5,1.4c-1.9-1.1-4.1-2.1-6.4-2.9L814.6,808.4z" style="fill: rgb(236, 145, 0);"/>
					</g>
					<g>
						<path class="st10" d="M756,835.7l3.3-0.7c0.9,1.5,2.1,2.9,3.6,4.2l-3,1.1C758.3,838.9,757,837.3,756,835.7z" style="fill: rgb(236, 145, 0);"/>
					</g>
					<g>
						<path class="st10" d="M757.4,825.7c-0.3,1.6-0.3,3.2,0,4.7l-3.5,0.2c-0.4-1.7-0.4-3.5,0-5.2L757.4,825.7z" style="fill: rgb(236, 145, 0);"/>
					</g>
					<g>
						<path class="st10" d="M759.7,815.8l3,1.1c-1.4,1.3-2.6,2.8-3.5,4.2l-3.3-0.7C756.8,818.8,758.1,817.2,759.7,815.8z" style="fill: rgb(236, 145, 0);"/>
					</g>
					<g>
						<path class="st10" d="M767.8,813.1L767.8,813.1l-2.6-1.4l0,0c2.1-1.2,4.4-2.3,6.9-3.2l1.9,1.7&#10;&#9;&#9;&#9;&#9;&#9;&#9;&#9;C771.8,811,769.7,812,767.8,813.1z" style="fill: rgb(236, 145, 0);"/>
					</g>
					<g>
						<path class="st10" d="M789.3,807.1c-2.7,0.2-5.4,0.5-7.9,1.1l-1.2-1.9c2.8-0.6,5.7-1,8.7-1.2L789.3,807.1z" style="fill: rgb(236, 145, 0);"/>
					</g>
					<g>
						<path class="st10" d="M805.4,808.1c-2.6-0.5-5.2-0.9-7.9-1l0.4-2c3,0.2,5.9,0.6,8.7,1.1L805.4,808.1z" style="fill: rgb(236, 145, 0);"/>
					</g>
					<g>
						<path class="st10" d="M827.5,840.2l-3-1.1c1.4-1.3,2.6-2.8,3.5-4.3l3.3,0.7C830.3,837.2,829,838.7,827.5,840.2z" style="fill: rgb(236, 145, 0);"/>
					</g>
				</g>
			</g>
			<g>
				<g>
					<g class="st5">
						<path class="st8" d="M744.5,811.6l0,13.5c0,7.3,4.8,14.7,14.5,20.2c30.2,17.5,83.6,5.5,83.6-20l0-13.5L744.5,811.6z" style="fill: rgb(255, 176, 0);"/>
						<g>
							<path class="st9" d="M828.1,791.6c19.2,11.1,19.3,29.1,0.2,40.2c-19.1,11.1-50.2,11.1-69.4,0c-19.2-11.1-19.3-29.1-0.2-40.2&#10;&#9;&#9;&#9;&#9;&#9;&#9;&#9;&#9;C777.8,780.5,808.9,780.5,828.1,791.6z" style="fill: rgb(255, 213, 0);"/>
						</g>
					</g>
				</g>
				<g>
					<g>
						<path class="st10" d="M821.9,828l-0.1,0.1c-2.1,1.2-4.4,2.3-7,3.2l-1.9-1.7c2.3-0.8,4.4-1.8,6.3-2.9l0.1-0.1L821.9,828z" style="fill: rgb(236, 145, 0);"/>
					</g>
					<g>
						<path class="st10" d="M797.8,832.6c2.7-0.2,5.4-0.5,7.9-1l1.2,1.9c-2.8,0.6-5.7,1-8.7,1.1L797.8,832.6z" style="fill: rgb(236, 145, 0);"/>
					</g>
					<g>
						<path class="st10" d="M833.1,809c0.4,1.7,0.4,3.5,0.1,5.2l-3.5-0.2c0.3-1.6,0.3-3.2-0.1-4.7L833.1,809z" style="fill: rgb(236, 145, 0);"/>
					</g>
					<g>
						<path class="st10" d="M781.7,831.6c2.6,0.5,5.2,0.9,7.9,1l-0.4,2c-3-0.2-5.9-0.6-8.7-1.1L781.7,831.6z" style="fill: rgb(236, 145, 0);"/>
					</g>
					<g>
						<path class="st10" d="M827.2,799.4c1.6,1.5,2.9,3,3.9,4.6l-3.3,0.7c-0.9-1.5-2.1-2.9-3.6-4.2L827.2,799.4z" style="fill: rgb(236, 145, 0);"/>
					</g>
					<g>
						<path class="st10" d="M768,826.6c1.9,1.1,4.1,2.1,6.4,2.9l-1.9,1.7c-2.5-0.9-4.9-2-7-3.2L768,826.6z" style="fill: rgb(236, 145, 0);"/>
					</g>
					<g>
						<path class="st10" d="M814.6,792.1c2.5,0.9,4.9,2,7,3.2l-2.5,1.4c-1.9-1.1-4.1-2.1-6.4-2.9L814.6,792.1z" style="fill: rgb(236, 145, 0);"/>
					</g>
					<g>
						<path class="st10" d="M756,819.4l3.3-0.7c0.9,1.5,2.1,2.9,3.6,4.2l-3,1.1C758.3,822.6,757,821,756,819.4z" style="fill: rgb(236, 145, 0);"/>
					</g>
					<g>
						<path class="st10" d="M757.4,809.4c-0.3,1.6-0.3,3.2,0,4.7l-3.5,0.2c-0.4-1.7-0.4-3.5,0-5.2L757.4,809.4z" style="fill: rgb(236, 145, 0);"/>
					</g>
					<g>
						<path class="st10" d="M759.7,799.5l3,1.1c-1.4,1.3-2.6,2.8-3.5,4.2l-3.3-0.7C756.8,802.5,758.1,800.9,759.7,799.5z" style="fill: rgb(236, 145, 0);"/>
					</g>
					<g>
						<path class="st10" d="M767.8,796.8L767.8,796.8l-2.6-1.4l0,0c2.1-1.2,4.4-2.3,6.9-3.2l1.9,1.7&#10;&#9;&#9;&#9;&#9;&#9;&#9;&#9;C771.8,794.7,769.7,795.7,767.8,796.8z" style="fill: rgb(236, 145, 0);"/>
					</g>
					<g>
						<path class="st10" d="M789.3,790.8c-2.7,0.2-5.4,0.5-7.9,1.1l-1.2-1.9c2.8-0.6,5.7-1,8.7-1.2L789.3,790.8z" style="fill: rgb(236, 145, 0);"/>
					</g>
					<g>
						<path class="st10" d="M805.4,791.8c-2.6-0.5-5.2-0.9-7.9-1l0.4-2c3,0.2,5.9,0.6,8.7,1.1L805.4,791.8z" style="fill: rgb(236, 145, 0);"/>
					</g>
					<g>
						<path class="st10" d="M827.5,823.9l-3-1.1c1.4-1.3,2.6-2.8,3.5-4.3l3.3,0.7C830.3,820.9,829,822.5,827.5,823.9z" style="fill: rgb(236, 145, 0);"/>
					</g>
				</g>
			</g>
			<g>
				<g>
					<g class="st5">
						<path class="st8" d="M744.5,795.3l0,13.5c0,7.3,4.8,14.7,14.5,20.2c30.2,17.5,83.6,5.5,83.6-20l0-13.5L744.5,795.3z" style="fill: rgb(255, 176, 0);"/>
						<g>
							<path class="st9" d="M828.1,775.3c19.2,11.1,19.3,29.1,0.2,40.2c-19.1,11.1-50.2,11.1-69.4,0c-19.2-11.1-19.3-29.1-0.2-40.2&#10;&#9;&#9;&#9;&#9;&#9;&#9;&#9;&#9;C777.8,764.2,808.9,764.2,828.1,775.3z" style="fill: rgb(255, 213, 0);"/>
						</g>
					</g>
				</g>
				<g>
					<g>
						<path class="st10" d="M821.9,811.7l-0.1,0.1c-2.1,1.2-4.4,2.3-7,3.2l-1.9-1.7c2.3-0.8,4.4-1.8,6.3-2.9l0.1-0.1L821.9,811.7z" style="fill: rgb(236, 145, 0);"/>
					</g>
					<g>
						<path class="st10" d="M797.8,816.3c2.7-0.2,5.4-0.5,7.9-1l1.2,1.9c-2.8,0.6-5.7,1-8.7,1.1L797.8,816.3z" style="fill: rgb(236, 145, 0);"/>
					</g>
					<g>
						<path class="st10" d="M833.1,792.8c0.4,1.7,0.4,3.5,0.1,5.2l-3.5-0.2c0.3-1.6,0.3-3.2-0.1-4.7L833.1,792.8z" style="fill: rgb(236, 145, 0);"/>
					</g>
					<g>
						<path class="st10" d="M781.7,815.3c2.6,0.5,5.2,0.9,7.9,1l-0.4,2c-3-0.2-5.9-0.6-8.7-1.1L781.7,815.3z" style="fill: rgb(236, 145, 0);"/>
					</g>
					<g>
						<path class="st10" d="M827.2,783.1c1.6,1.5,2.9,3,3.9,4.6l-3.3,0.7c-0.9-1.5-2.1-2.9-3.6-4.2L827.2,783.1z" style="fill: rgb(236, 145, 0);"/>
					</g>
					<g>
						<path class="st10" d="M768,810.3c1.9,1.1,4.1,2.1,6.4,2.9l-1.9,1.7c-2.5-0.9-4.9-2-7-3.2L768,810.3z" style="fill: rgb(236, 145, 0);"/>
					</g>
					<g>
						<path class="st10" d="M814.6,775.8c2.5,0.9,4.9,2,7,3.2l-2.5,1.4c-1.9-1.1-4.1-2.1-6.4-2.9L814.6,775.8z" style="fill: rgb(236, 145, 0);"/>
					</g>
					<g>
						<path class="st10" d="M756,803.1l3.3-0.7c0.9,1.5,2.1,2.9,3.6,4.2l-3,1.1C758.3,806.3,757,804.7,756,803.1z" style="fill: rgb(236, 145, 0);"/>
					</g>
					<g>
						<path class="st10" d="M757.4,793.1c-0.3,1.6-0.3,3.2,0,4.7L754,798c-0.4-1.7-0.4-3.5,0-5.2L757.4,793.1z" style="fill: rgb(236, 145, 0);"/>
					</g>
					<g>
						<path class="st10" d="M759.7,783.2l3,1.1c-1.4,1.3-2.6,2.8-3.5,4.2l-3.3-0.7C756.8,786.2,758.1,784.6,759.7,783.2z" style="fill: rgb(236, 145, 0);"/>
					</g>
					<g>
						<path class="st10" d="M767.8,780.5L767.8,780.5l-2.6-1.4l0,0c2.1-1.2,4.4-2.3,6.9-3.2l1.9,1.7&#10;&#9;&#9;&#9;&#9;&#9;&#9;&#9;C771.8,778.5,769.7,779.4,767.8,780.5z" style="fill: rgb(236, 145, 0);"/>
					</g>
					<g>
						<path class="st10" d="M789.3,774.5c-2.7,0.2-5.4,0.5-7.9,1.1l-1.2-1.9c2.8-0.6,5.7-1,8.7-1.2L789.3,774.5z" style="fill: rgb(236, 145, 0);"/>
					</g>
					<g>
						<path class="st10" d="M805.4,775.5c-2.6-0.5-5.2-0.9-7.9-1l0.4-2c3,0.2,5.9,0.6,8.7,1.1L805.4,775.5z" style="fill: rgb(236, 145, 0);"/>
					</g>
					<g>
						<path class="st10" d="M827.5,807.6l-3-1.1c1.4-1.3,2.6-2.8,3.5-4.3l3.3,0.7C830.3,804.6,829,806.2,827.5,807.6z" style="fill: rgb(236, 145, 0);"/>
					</g>
				</g>
			</g>
			<g>
				<g>
					<g class="st5">
						<path class="st8" d="M744.5,779l0,13.5c0,7.3,4.8,14.7,14.5,20.2c30.2,17.5,83.6,5.5,83.6-20l0-13.5L744.5,779z" style="fill: rgb(255, 176, 0);"/>
						<g>
							<path class="st9" d="M828.1,759c19.2,11.1,19.3,29.1,0.2,40.2c-19.1,11.1-50.2,11.1-69.4,0c-19.2-11.1-19.3-29.1-0.2-40.2&#10;&#9;&#9;&#9;&#9;&#9;&#9;&#9;&#9;C777.8,747.9,808.9,747.9,828.1,759z" style="fill: rgb(255, 213, 0);"/>
						</g>
					</g>
				</g>
				<g>
					<g>
						<path class="st10" d="M821.9,795.4l-0.1,0.1c-2.1,1.2-4.4,2.3-7,3.2L813,797c2.3-0.8,4.4-1.8,6.3-2.9l0.1-0.1L821.9,795.4z" style="fill: rgb(236, 145, 0);"/>
					</g>
					<g>
						<path class="st10" d="M797.8,800.1c2.7-0.2,5.4-0.5,7.9-1l1.2,1.9c-2.8,0.6-5.7,1-8.7,1.1L797.8,800.1z" style="fill: rgb(236, 145, 0);"/>
					</g>
					<g>
						<path class="st10" d="M833.1,776.5c0.4,1.7,0.4,3.4,0.1,5.2l-3.5-0.2c0.3-1.6,0.3-3.2-0.1-4.7L833.1,776.5z" style="fill: rgb(236, 145, 0);"/>
					</g>
					<g>
						<path class="st10" d="M781.7,799c2.6,0.5,5.2,0.9,7.9,1l-0.4,2c-3-0.2-5.9-0.6-8.7-1.1L781.7,799z" style="fill: rgb(236, 145, 0);"/>
					</g>
					<g>
						<path class="st10" d="M827.2,766.8c1.6,1.5,2.9,3,3.9,4.6l-3.3,0.7c-0.9-1.5-2.1-2.9-3.6-4.2L827.2,766.8z" style="fill: rgb(236, 145, 0);"/>
					</g>
					<g>
						<path class="st10" d="M768,794c1.9,1.1,4.1,2.1,6.4,2.9l-1.9,1.7c-2.5-0.9-4.9-2-7-3.2L768,794z" style="fill: rgb(236, 145, 0);"/>
					</g>
					<g>
						<path class="st10" d="M814.6,759.6c2.5,0.9,4.9,2,7,3.2l-2.5,1.4c-1.9-1.1-4.1-2.1-6.4-2.9L814.6,759.6z" style="fill: rgb(236, 145, 0);"/>
					</g>
					<g>
						<path class="st10" d="M756,786.8l3.3-0.7c0.9,1.5,2.1,2.9,3.6,4.2l-3,1.1C758.3,790,757,788.4,756,786.8z" style="fill: rgb(236, 145, 0);"/>
					</g>
					<g>
						<path class="st10" d="M757.4,776.8c-0.3,1.6-0.3,3.2,0,4.7l-3.5,0.2c-0.4-1.7-0.4-3.5,0-5.2L757.4,776.8z" style="fill: rgb(236, 145, 0);"/>
					</g>
					<g>
						<path class="st10" d="M759.7,766.9l3,1.1c-1.4,1.3-2.6,2.8-3.5,4.2l-3.3-0.7C756.8,769.9,758.1,768.4,759.7,766.9z" style="fill: rgb(236, 145, 0);"/>
					</g>
					<g>
						<path class="st10" d="M767.8,764.3L767.8,764.3l-2.6-1.4l0,0c2.1-1.2,4.4-2.3,6.9-3.2l1.9,1.7&#10;&#9;&#9;&#9;&#9;&#9;&#9;&#9;C771.8,762.2,769.7,763.2,767.8,764.3z" style="fill: rgb(236, 145, 0);"/>
					</g>
					<g>
						<path class="st10" d="M789.3,758.2c-2.7,0.2-5.4,0.5-7.9,1.1l-1.2-1.9c2.8-0.6,5.7-1,8.7-1.2L789.3,758.2z" style="fill: rgb(236, 145, 0);"/>
					</g>
					<g>
						<path class="st10" d="M805.4,759.3c-2.6-0.5-5.2-0.9-7.9-1l0.4-2c3,0.2,5.9,0.6,8.7,1.1L805.4,759.3z" style="fill: rgb(236, 145, 0);"/>
					</g>
					<g>
						<path class="st10" d="M827.5,791.3l-3-1.1c1.4-1.3,2.6-2.8,3.5-4.3l3.3,0.7C830.3,788.3,829,789.9,827.5,791.3z" style="fill: rgb(236, 145, 0);"/>
					</g>
				</g>
			</g>
			<g>
				<g>
					<g class="st5">
						<path class="st8" d="M744.5,762.7l0,13.5c0,7.3,4.8,14.7,14.5,20.2c30.2,17.5,83.6,5.5,83.6-20l0-13.5L744.5,762.7z" style="fill: rgb(255, 176, 0);"/>
						<g>
							<path class="st9" d="M828.1,742.8c19.2,11.1,19.3,29.1,0.2,40.2c-19.1,11.1-50.2,11.1-69.4,0c-19.2-11.1-19.3-29.1-0.2-40.2&#10;&#9;&#9;&#9;&#9;&#9;&#9;&#9;&#9;C777.8,731.7,808.9,731.7,828.1,742.8z" style="fill: rgb(255, 213, 0);"/>
						</g>
					</g>
				</g>
				<g>
					<g>
						<path class="st10" d="M821.9,779.1l-0.1,0.1c-2.1,1.2-4.4,2.3-7,3.2l-1.9-1.7c2.3-0.8,4.4-1.8,6.3-2.9l0.1-0.1L821.9,779.1z" style="fill: rgb(236, 145, 0);"/>
					</g>
					<g>
						<path class="st10" d="M797.8,783.8c2.7-0.2,5.4-0.5,7.9-1l1.2,1.9c-2.8,0.6-5.7,1-8.7,1.1L797.8,783.8z" style="fill: rgb(236, 145, 0);"/>
					</g>
					<g>
						<path class="st10" d="M833.1,760.2c0.4,1.7,0.4,3.4,0.1,5.2l-3.5-0.2c0.3-1.6,0.3-3.2-0.1-4.7L833.1,760.2z" style="fill: rgb(236, 145, 0);"/>
					</g>
					<g>
						<path class="st10" d="M781.7,782.7c2.6,0.5,5.2,0.9,7.9,1l-0.4,2c-3-0.2-5.9-0.6-8.7-1.1L781.7,782.7z" style="fill: rgb(236, 145, 0);"/>
					</g>
					<g>
						<path class="st10" d="M827.2,750.5c1.6,1.5,2.9,3,3.9,4.6l-3.3,0.7c-0.9-1.5-2.1-2.9-3.6-4.2L827.2,750.5z" style="fill: rgb(236, 145, 0);"/>
					</g>
					<g>
						<path class="st10" d="M768,777.8c1.9,1.1,4.1,2.1,6.4,2.9l-1.9,1.7c-2.5-0.9-4.9-2-7-3.2L768,777.8z" style="fill: rgb(236, 145, 0);"/>
					</g>
					<g>
						<path class="st10" d="M814.6,743.3c2.5,0.9,4.9,2,7,3.2l-2.5,1.4c-1.9-1.1-4.1-2.1-6.4-2.9L814.6,743.3z" style="fill: rgb(236, 145, 0);"/>
					</g>
					<g>
						<path class="st10" d="M756,770.5l3.3-0.7c0.9,1.5,2.1,2.9,3.6,4.2l-3,1.1C758.3,773.7,757,772.1,756,770.5z" style="fill: rgb(236, 145, 0);"/>
					</g>
					<g>
						<path class="st10" d="M757.4,760.5c-0.3,1.6-0.3,3.2,0,4.7l-3.5,0.2c-0.4-1.7-0.4-3.5,0-5.2L757.4,760.5z" style="fill: rgb(236, 145, 0);"/>
					</g>
					<g>
						<path class="st10" d="M759.7,750.6l3,1.1c-1.4,1.3-2.6,2.8-3.5,4.2l-3.3-0.7C756.8,753.6,758.1,752.1,759.7,750.6z" style="fill: rgb(236, 145, 0);"/>
					</g>
					<g>
						<path class="st10" d="M767.8,748L767.8,748l-2.6-1.4l0,0c2.1-1.2,4.4-2.3,6.9-3.2l1.9,1.7C771.8,745.9,769.7,746.9,767.8,748z&#10;&#9;&#9;&#9;&#9;&#9;&#9;&#9;" style="fill: rgb(236, 145, 0);"/>
					</g>
					<g>
						<path class="st10" d="M789.3,741.9c-2.7,0.2-5.4,0.5-7.9,1.1l-1.2-1.9c2.8-0.6,5.7-1,8.7-1.2L789.3,741.9z" style="fill: rgb(236, 145, 0);"/>
					</g>
					<g>
						<path class="st10" d="M805.4,743c-2.6-0.5-5.2-0.9-7.9-1l0.4-2c3,0.2,5.9,0.6,8.7,1.1L805.4,743z" style="fill: rgb(236, 145, 0);"/>
					</g>
					<g>
						<path class="st10" d="M827.5,775.1l-3-1.1c1.4-1.3,2.6-2.8,3.5-4.3l3.3,0.7C830.3,772,829,773.6,827.5,775.1z" style="fill: rgb(236, 145, 0);"/>
					</g>
				</g>
			</g>
			<g>
				<g>
					<g class="st5">
						<path class="st8" d="M744.5,746.4l0,13.5c0,7.3,4.8,14.7,14.5,20.2c30.2,17.5,83.6,5.5,83.6-20l0-13.5L744.5,746.4z" style="fill: rgb(255, 176, 0);"/>
						<g>
							<path class="st9" d="M828.1,726.5c19.2,11.1,19.3,29.1,0.2,40.2c-19.1,11.1-50.2,11.1-69.4,0c-19.2-11.1-19.3-29.1-0.2-40.2&#10;&#9;&#9;&#9;&#9;&#9;&#9;&#9;&#9;S808.9,715.4,828.1,726.5z" style="fill: rgb(255, 213, 0);"/>
						</g>
					</g>
				</g>
				<g>
					<g>
						<path class="st10" d="M821.9,762.8l-0.1,0.1c-2.1,1.2-4.4,2.3-7,3.2l-1.9-1.7c2.3-0.8,4.4-1.8,6.3-2.9l0.1-0.1L821.9,762.8z" style="fill: rgb(236, 145, 0);"/>
					</g>
					<g>
						<path class="st10" d="M797.8,767.5c2.7-0.2,5.4-0.5,7.9-1l1.2,1.9c-2.8,0.6-5.7,1-8.7,1.1L797.8,767.5z" style="fill: rgb(236, 145, 0);"/>
					</g>
					<g>
						<path class="st10" d="M833.1,743.9c0.4,1.7,0.4,3.4,0.1,5.2l-3.5-0.2c0.3-1.6,0.3-3.2-0.1-4.7L833.1,743.9z" style="fill: rgb(236, 145, 0);"/>
					</g>
					<g>
						<path class="st10" d="M781.7,766.4c2.6,0.5,5.2,0.9,7.9,1l-0.4,2c-3-0.2-5.9-0.6-8.7-1.1L781.7,766.4z" style="fill: rgb(236, 145, 0);"/>
					</g>
					<g>
						<path class="st10" d="M827.2,734.2c1.6,1.5,2.9,3,3.9,4.6l-3.3,0.7c-0.9-1.5-2.1-2.9-3.6-4.2L827.2,734.2z" style="fill: rgb(236, 145, 0);"/>
					</g>
					<g>
						<path class="st10" d="M768,761.5c1.9,1.1,4.1,2.1,6.4,2.9l-1.9,1.7c-2.5-0.9-4.9-2-7-3.2L768,761.5z" style="fill: rgb(236, 145, 0);"/>
					</g>
					<g>
						<path class="st10" d="M814.6,727c2.5,0.9,4.9,2,7,3.2l-2.5,1.4c-1.9-1.1-4.1-2.1-6.4-2.9L814.6,727z" style="fill: rgb(236, 145, 0);"/>
					</g>
					<g>
						<path class="st10" d="M756,754.2l3.3-0.7c0.9,1.5,2.1,2.9,3.6,4.2l-3,1.1C758.3,757.4,757,755.8,756,754.2z" style="fill: rgb(236, 145, 0);"/>
					</g>
					<g>
						<path class="st10" d="M757.4,744.2c-0.3,1.6-0.3,3.2,0,4.7l-3.5,0.2c-0.4-1.7-0.4-3.5,0-5.2L757.4,744.2z" style="fill: rgb(236, 145, 0);"/>
					</g>
					<g>
						<path class="st10" d="M759.7,734.3l3,1.1c-1.4,1.3-2.6,2.8-3.5,4.2l-3.3-0.7C756.8,737.3,758.1,735.8,759.7,734.3z" style="fill: rgb(236, 145, 0);"/>
					</g>
					<g>
						<path class="st10" d="M767.8,731.7L767.8,731.7l-2.6-1.4l0,0c2.1-1.2,4.4-2.3,6.9-3.2l1.9,1.7&#10;&#9;&#9;&#9;&#9;&#9;&#9;&#9;C771.8,729.6,769.7,730.6,767.8,731.7z" style="fill: rgb(236, 145, 0);"/>
					</g>
					<g>
						<path class="st10" d="M789.3,725.7c-2.7,0.2-5.4,0.5-7.9,1.1l-1.2-1.9c2.8-0.6,5.7-1,8.7-1.2L789.3,725.7z" style="fill: rgb(236, 145, 0);"/>
					</g>
					<g>
						<path class="st10" d="M805.4,726.7c-2.6-0.5-5.2-0.9-7.9-1l0.4-2c3,0.2,5.9,0.6,8.7,1.1L805.4,726.7z" style="fill: rgb(236, 145, 0);"/>
					</g>
					<g>
						<path class="st10" d="M827.5,758.8l-3-1.1c1.4-1.3,2.6-2.8,3.5-4.3l3.3,0.7C830.3,755.7,829,757.3,827.5,758.8z" style="fill: rgb(236, 145, 0);"/>
					</g>
				</g>
			</g>
			<g>
				<g>
					<g class="st5">
						<path class="st8" d="M744.5,730.1l0,13.5c0,7.3,4.8,14.7,14.5,20.2c30.2,17.5,83.6,5.5,83.6-20l0-13.5L744.5,730.1z" style="fill: rgb(255, 176, 0);"/>
						<g>
							<path class="st9" d="M828.1,710.2c19.2,11.1,19.3,29.1,0.2,40.2s-50.2,11.1-69.4,0c-19.2-11.1-19.3-29.1-0.2-40.2&#10;&#9;&#9;&#9;&#9;&#9;&#9;&#9;&#9;S808.9,699.1,828.1,710.2z" style="fill: rgb(255, 213, 0);"/>
						</g>
					</g>
				</g>
				<g>
					<g>
						<path class="st10" d="M821.9,746.5l-0.1,0.1c-2.1,1.2-4.4,2.3-7,3.2l-1.9-1.7c2.3-0.8,4.4-1.8,6.3-2.9l0.1-0.1L821.9,746.5z" style="fill: rgb(236, 145, 0);"/>
					</g>
					<g>
						<path class="st10" d="M797.8,751.2c2.7-0.2,5.4-0.5,7.9-1l1.2,1.9c-2.8,0.6-5.7,1-8.7,1.1L797.8,751.2z" style="fill: rgb(236, 145, 0);"/>
					</g>
					<g>
						<path class="st10" d="M833.1,727.6c0.4,1.7,0.4,3.4,0.1,5.2l-3.5-0.2c0.3-1.6,0.3-3.2-0.1-4.7L833.1,727.6z" style="fill: rgb(236, 145, 0);"/>
					</g>
					<g>
						<path class="st10" d="M781.7,750.2c2.6,0.5,5.2,0.9,7.9,1l-0.4,2c-3-0.2-5.9-0.6-8.7-1.1L781.7,750.2z" style="fill: rgb(236, 145, 0);"/>
					</g>
					<g>
						<path class="st10" d="M827.2,717.9c1.6,1.5,2.9,3,3.9,4.6l-3.3,0.7c-0.9-1.5-2.1-2.9-3.6-4.2L827.2,717.9z" style="fill: rgb(236, 145, 0);"/>
					</g>
					<g>
						<path class="st10" d="M768,745.2c1.9,1.1,4.1,2.1,6.4,2.9l-1.9,1.7c-2.5-0.9-4.9-2-7-3.2L768,745.2z" style="fill: rgb(236, 145, 0);"/>
					</g>
					<g>
						<path class="st10" d="M814.6,710.7c2.5,0.9,4.9,2,7,3.2l-2.5,1.4c-1.9-1.1-4.1-2.1-6.4-2.9L814.6,710.7z" style="fill: rgb(236, 145, 0);"/>
					</g>
					<g>
						<path class="st10" d="M756,737.9l3.3-0.7c0.9,1.5,2.1,2.9,3.6,4.2l-3,1.1C758.3,741.1,757,739.6,756,737.9z" style="fill: rgb(236, 145, 0);"/>
					</g>
					<g>
						<path class="st10" d="M757.4,728c-0.3,1.6-0.3,3.2,0,4.7l-3.5,0.2c-0.4-1.7-0.4-3.5,0-5.2L757.4,728z" style="fill: rgb(236, 145, 0);"/>
					</g>
					<g>
						<path class="st10" d="M759.7,718l3,1.1c-1.4,1.3-2.6,2.8-3.5,4.2l-3.3-0.7C756.8,721.1,758.1,719.5,759.7,718z" style="fill: rgb(236, 145, 0);"/>
					</g>
					<g>
						<path class="st10" d="M767.8,715.4L767.8,715.4l-2.6-1.4l0,0c2.1-1.2,4.4-2.3,6.9-3.2l1.9,1.7&#10;&#9;&#9;&#9;&#9;&#9;&#9;&#9;C771.8,713.3,769.7,714.3,767.8,715.4z" style="fill: rgb(236, 145, 0);"/>
					</g>
					<g>
						<path class="st10" d="M789.3,709.4c-2.7,0.2-5.4,0.5-7.9,1.1l-1.2-1.9c2.8-0.6,5.7-1,8.7-1.2L789.3,709.4z" style="fill: rgb(236, 145, 0);"/>
					</g>
					<g>
						<path class="st10" d="M805.4,710.4c-2.6-0.5-5.2-0.9-7.9-1l0.4-2c3,0.2,5.9,0.6,8.7,1.1L805.4,710.4z" style="fill: rgb(236, 145, 0);"/>
					</g>
					<g>
						<path class="st10" d="M827.5,742.5l-3-1.1c1.4-1.3,2.6-2.8,3.5-4.3l3.3,0.7C830.3,739.5,829,741,827.5,742.5z" style="fill: rgb(236, 145, 0);"/>
					</g>
				</g>
			</g>
			<g>
				<g>
					<g class="st5">
						<path class="st8" d="M744.5,713.9l0,13.5c0,7.3,4.8,14.7,14.5,20.2c30.2,17.5,83.6,5.5,83.6-20l0-13.5L744.5,713.9z" style="fill: rgb(255, 176, 0);"/>
						<g>
							<path class="st9" d="M828.1,693.9c19.2,11.1,19.3,29.1,0.2,40.2s-50.2,11.1-69.4,0c-19.2-11.1-19.3-29.1-0.2-40.2&#10;&#9;&#9;&#9;&#9;&#9;&#9;&#9;&#9;S808.9,682.8,828.1,693.9z" style="fill: rgb(255, 213, 0);"/>
						</g>
					</g>
				</g>
				<g>
					<g>
						<path class="st10" d="M821.9,730.2l-0.1,0.1c-2.1,1.2-4.4,2.3-7,3.2l-1.9-1.7c2.3-0.8,4.4-1.8,6.3-2.9l0.1-0.1L821.9,730.2z" style="fill: rgb(236, 145, 0);"/>
					</g>
					<g>
						<path class="st10" d="M797.8,734.9c2.7-0.2,5.4-0.5,7.9-1l1.2,1.9c-2.8,0.6-5.7,1-8.7,1.1L797.8,734.9z" style="fill: rgb(236, 145, 0);"/>
					</g>
					<g>
						<path class="st10" d="M833.1,711.3c0.4,1.7,0.4,3.4,0.1,5.2l-3.5-0.2c0.3-1.6,0.3-3.2-0.1-4.7L833.1,711.3z" style="fill: rgb(236, 145, 0);"/>
					</g>
					<g>
						<path class="st10" d="M781.7,733.9c2.6,0.5,5.2,0.9,7.9,1l-0.4,2c-3-0.2-5.9-0.6-8.7-1.1L781.7,733.9z" style="fill: rgb(236, 145, 0);"/>
					</g>
					<g>
						<path class="st10" d="M827.2,701.6c1.6,1.5,2.9,3,3.9,4.6l-3.3,0.7c-0.9-1.5-2.1-2.9-3.6-4.2L827.2,701.6z" style="fill: rgb(236, 145, 0);"/>
					</g>
					<g>
						<path class="st10" d="M768,728.9c1.9,1.1,4.1,2.1,6.4,2.9l-1.9,1.7c-2.5-0.9-4.9-2-7-3.2L768,728.9z" style="fill: rgb(236, 145, 0);"/>
					</g>
					<g>
						<path class="st10" d="M814.6,694.4c2.5,0.9,4.9,2,7,3.2l-2.5,1.4c-1.9-1.1-4.1-2.1-6.4-2.9L814.6,694.4z" style="fill: rgb(236, 145, 0);"/>
					</g>
					<g>
						<path class="st10" d="M756,721.6l3.3-0.7c0.9,1.5,2.1,2.9,3.6,4.2l-3,1.1C758.3,724.8,757,723.3,756,721.6z" style="fill: rgb(236, 145, 0);"/>
					</g>
					<g>
						<path class="st10" d="M757.4,711.7c-0.3,1.6-0.3,3.2,0,4.7l-3.5,0.2c-0.4-1.7-0.4-3.5,0-5.2L757.4,711.7z" style="fill: rgb(236, 145, 0);"/>
					</g>
					<g>
						<path class="st10" d="M759.7,701.7l3,1.1c-1.4,1.3-2.6,2.8-3.5,4.2l-3.3-0.7C756.8,704.8,758.1,703.2,759.7,701.7z" style="fill: rgb(236, 145, 0);"/>
					</g>
					<g>
						<path class="st10" d="M767.8,699.1L767.8,699.1l-2.6-1.4l0,0c2.1-1.2,4.4-2.3,6.9-3.2l1.9,1.7&#10;&#9;&#9;&#9;&#9;&#9;&#9;&#9;C771.8,697,769.7,698,767.8,699.1z" style="fill: rgb(236, 145, 0);"/>
					</g>
					<g>
						<path class="st10" d="M789.3,693.1c-2.7,0.2-5.4,0.5-7.9,1.1l-1.2-1.9c2.8-0.6,5.7-1,8.7-1.2L789.3,693.1z" style="fill: rgb(236, 145, 0);"/>
					</g>
					<g>
						<path class="st10" d="M805.4,694.1c-2.6-0.5-5.2-0.9-7.9-1l0.4-2c3,0.2,5.9,0.6,8.7,1.1L805.4,694.1z" style="fill: rgb(236, 145, 0);"/>
					</g>
					<g>
						<path class="st10" d="M827.5,726.2l-3-1.1c1.4-1.3,2.6-2.8,3.5-4.3l3.3,0.7C830.3,723.2,829,724.7,827.5,726.2z" style="fill: rgb(236, 145, 0);"/>
					</g>
				</g>
			</g>
			<g>
				<g>
					<g class="st5">
						<path class="st8" d="M744.5,697.6l0,13.5c0,7.3,4.8,14.7,14.5,20.2c30.2,17.5,83.6,5.5,83.6-20l0-13.5L744.5,697.6z" style="fill: rgb(255, 176, 0);"/>
						<g>
							<path class="st9" d="M828.1,677.6c19.2,11.1,19.3,29.1,0.2,40.2s-50.2,11.1-69.4,0c-19.2-11.1-19.3-29.1-0.2-40.2&#10;&#9;&#9;&#9;&#9;&#9;&#9;&#9;&#9;S808.9,666.5,828.1,677.6z" style="fill: rgb(255, 213, 0);"/>
						</g>
					</g>
				</g>
				<g>
					<g>
						<path class="st10" d="M821.9,714l-0.1,0.1c-2.1,1.2-4.4,2.3-7,3.2l-1.9-1.7c2.3-0.8,4.4-1.8,6.3-2.9l0.1-0.1L821.9,714z" style="fill: rgb(236, 145, 0);"/>
					</g>
					<g>
						<path class="st10" d="M797.8,718.6c2.7-0.2,5.4-0.5,7.9-1l1.2,1.9c-2.8,0.6-5.7,1-8.7,1.1L797.8,718.6z" style="fill: rgb(236, 145, 0);"/>
					</g>
					<g>
						<path class="st10" d="M833.1,695c0.4,1.7,0.4,3.4,0.1,5.2l-3.5-0.2c0.3-1.6,0.3-3.2-0.1-4.7L833.1,695z" style="fill: rgb(236, 145, 0);"/>
					</g>
					<g>
						<path class="st10" d="M781.7,717.6c2.6,0.5,5.2,0.9,7.9,1l-0.4,2c-3-0.2-5.9-0.6-8.7-1.1L781.7,717.6z" style="fill: rgb(236, 145, 0);"/>
					</g>
					<g>
						<path class="st10" d="M827.2,685.4c1.6,1.5,2.9,3,3.9,4.6l-3.3,0.7c-0.9-1.5-2.1-2.9-3.6-4.2L827.2,685.4z" style="fill: rgb(236, 145, 0);"/>
					</g>
					<g>
						<path class="st10" d="M768,712.6c1.9,1.1,4.1,2.1,6.4,2.9l-1.9,1.7c-2.5-0.9-4.9-2-7-3.2L768,712.6z" style="fill: rgb(236, 145, 0);"/>
					</g>
					<g>
						<path class="st10" d="M814.6,678.1c2.5,0.9,4.9,2,7,3.2l-2.5,1.4c-1.9-1.1-4.1-2.1-6.4-2.9L814.6,678.1z" style="fill: rgb(236, 145, 0);"/>
					</g>
					<g>
						<path class="st10" d="M756,705.4l3.3-0.7c0.9,1.5,2.1,2.9,3.6,4.2l-3,1.1C758.3,708.6,757,707,756,705.4z" style="fill: rgb(236, 145, 0);"/>
					</g>
					<g>
						<path class="st10" d="M757.4,695.4c-0.3,1.6-0.3,3.2,0,4.7l-3.5,0.2c-0.4-1.7-0.4-3.5,0-5.2L757.4,695.4z" style="fill: rgb(236, 145, 0);"/>
					</g>
					<g>
						<path class="st10" d="M759.7,685.5l3,1.1c-1.4,1.3-2.6,2.8-3.5,4.2l-3.3-0.7C756.8,688.5,758.1,686.9,759.7,685.5z" style="fill: rgb(236, 145, 0);"/>
					</g>
					<g>
						<path class="st10" d="M767.8,682.8L767.8,682.8l-2.6-1.4l0,0c2.1-1.2,4.4-2.3,6.9-3.2l1.9,1.7&#10;&#9;&#9;&#9;&#9;&#9;&#9;&#9;C771.8,680.7,769.7,681.7,767.8,682.8z" style="fill: rgb(236, 145, 0);"/>
					</g>
					<g>
						<path class="st10" d="M789.3,676.8c-2.7,0.2-5.4,0.5-7.9,1.1l-1.2-1.9c2.8-0.6,5.7-1,8.7-1.2L789.3,676.8z" style="fill: rgb(236, 145, 0);"/>
					</g>
					<g>
						<path class="st10" d="M805.4,677.8c-2.6-0.5-5.2-0.9-7.9-1l0.4-2c3,0.2,5.9,0.6,8.7,1.1L805.4,677.8z" style="fill: rgb(236, 145, 0);"/>
					</g>
					<g>
						<path class="st10" d="M827.5,709.9l-3-1.1c1.4-1.3,2.6-2.8,3.5-4.3l3.3,0.7C830.3,706.9,829,708.4,827.5,709.9z" style="fill: rgb(236, 145, 0);"/>
					</g>
				</g>
			</g>
			<g>
				<g>
					<g class="st5">
						<path class="st8" d="M744.5,681.3l0,13.5c0,7.3,4.8,14.7,14.5,20.2c30.2,17.5,83.6,5.5,83.6-20l0-13.5L744.5,681.3z" style="fill: rgb(255, 176, 0);"/>
						<g>
							<path class="st9" d="M828.1,661.3c19.2,11.1,19.3,29.1,0.2,40.2s-50.2,11.1-69.4,0c-19.2-11.1-19.3-29.1-0.2-40.2&#10;&#9;&#9;&#9;&#9;&#9;&#9;&#9;&#9;S808.9,650.2,828.1,661.3z" style="fill: rgb(255, 213, 0);"/>
						</g>
					</g>
				</g>
				<g>
					<g>
						<path class="st10" d="M821.9,697.7l-0.1,0.1c-2.1,1.2-4.4,2.3-7,3.2l-1.9-1.7c2.3-0.8,4.4-1.8,6.3-2.9l0.1-0.1L821.9,697.7z" style="fill: rgb(236, 145, 0);"/>
					</g>
					<g>
						<path class="st10" d="M797.8,702.3c2.7-0.2,5.4-0.5,7.9-1l1.2,1.9c-2.8,0.6-5.7,1-8.7,1.1L797.8,702.3z" style="fill: rgb(236, 145, 0);"/>
					</g>
					<g>
						<path class="st10" d="M833.1,678.8c0.4,1.7,0.4,3.4,0.1,5.2l-3.5-0.2c0.3-1.6,0.3-3.2-0.1-4.7L833.1,678.8z" style="fill: rgb(236, 145, 0);"/>
					</g>
					<g>
						<path class="st10" d="M781.7,701.3c2.6,0.5,5.2,0.9,7.9,1l-0.4,2c-3-0.2-5.9-0.6-8.7-1.1L781.7,701.3z" style="fill: rgb(236, 145, 0);"/>
					</g>
					<g>
						<path class="st10" d="M827.2,669.1c1.6,1.5,2.9,3,3.9,4.6l-3.3,0.7c-0.9-1.5-2.1-2.9-3.6-4.2L827.2,669.1z" style="fill: rgb(236, 145, 0);"/>
					</g>
					<g>
						<path class="st10" d="M768,696.3c1.9,1.1,4.1,2.1,6.4,2.9l-1.9,1.7c-2.5-0.9-4.9-2-7-3.2L768,696.3z" style="fill: rgb(236, 145, 0);"/>
					</g>
					<g>
						<path class="st10" d="M814.6,661.8c2.5,0.9,4.9,2,7,3.2l-2.5,1.4c-1.9-1.1-4.1-2.1-6.4-2.9L814.6,661.8z" style="fill: rgb(236, 145, 0);"/>
					</g>
					<g>
						<path class="st10" d="M756,689.1l3.3-0.7c0.9,1.5,2.1,2.9,3.6,4.2l-3,1.1C758.3,692.3,757,690.7,756,689.1z" style="fill: rgb(236, 145, 0);"/>
					</g>
					<g>
						<path class="st10" d="M757.4,679.1c-0.3,1.6-0.3,3.2,0,4.7L754,684c-0.4-1.7-0.4-3.5,0-5.2L757.4,679.1z" style="fill: rgb(236, 145, 0);"/>
					</g>
					<g>
						<path class="st10" d="M759.7,669.2l3,1.1c-1.4,1.3-2.6,2.8-3.5,4.2l-3.3-0.7C756.8,672.2,758.1,670.6,759.7,669.2z" style="fill: rgb(236, 145, 0);"/>
					</g>
					<g>
						<path class="st10" d="M767.8,666.5L767.8,666.5l-2.6-1.4l0,0c2.1-1.2,4.4-2.3,6.9-3.2l1.9,1.7&#10;&#9;&#9;&#9;&#9;&#9;&#9;&#9;C771.8,664.4,769.7,665.4,767.8,666.5z" style="fill: rgb(236, 145, 0);"/>
					</g>
					<g>
						<path class="st10" d="M789.3,660.5c-2.7,0.2-5.4,0.5-7.9,1.1l-1.2-1.9c2.8-0.6,5.7-1,8.7-1.2L789.3,660.5z" style="fill: rgb(236, 145, 0);"/>
					</g>
					<g>
						<path class="st10" d="M805.4,661.5c-2.6-0.5-5.2-0.9-7.9-1l0.4-2c3,0.2,5.9,0.6,8.7,1.1L805.4,661.5z" style="fill: rgb(236, 145, 0);"/>
					</g>
					<g>
						<path class="st10" d="M827.5,693.6l-3-1.1c1.4-1.3,2.6-2.8,3.5-4.3l3.3,0.7C830.3,690.6,829,692.2,827.5,693.6z" style="fill: rgb(236, 145, 0);"/>
					</g>
				</g>
			</g>
			<g>
				<g>
					<g class="st5">
						<path class="st8" d="M744.5,665l0,13.5c0,7.3,4.8,14.7,14.5,20.2c30.2,17.5,83.6,5.5,83.6-20l0-13.5L744.5,665z" style="fill: rgb(255, 176, 0);"/>
						<g>
							<path class="st9" d="M828.1,645c19.2,11.1,19.3,29.1,0.2,40.2s-50.2,11.1-69.4,0c-19.2-11.1-19.3-29.1-0.2-40.2&#10;&#9;&#9;&#9;&#9;&#9;&#9;&#9;&#9;S808.9,633.9,828.1,645z" style="fill: rgb(255, 213, 0);"/>
						</g>
					</g>
				</g>
				<g>
					<g>
						<path class="st10" d="M821.9,681.4l-0.1,0.1c-2.1,1.2-4.4,2.3-7,3.2L813,683c2.3-0.8,4.4-1.8,6.3-2.9l0.1-0.1L821.9,681.4z" style="fill: rgb(236, 145, 0);"/>
					</g>
					<g>
						<path class="st10" d="M797.8,686c2.7-0.2,5.4-0.5,7.9-1l1.2,1.9c-2.8,0.6-5.7,1-8.7,1.1L797.8,686z" style="fill: rgb(236, 145, 0);"/>
					</g>
					<g>
						<path class="st10" d="M833.1,662.5c0.4,1.7,0.4,3.4,0.1,5.2l-3.5-0.2c0.3-1.6,0.3-3.2-0.1-4.7L833.1,662.5z" style="fill: rgb(236, 145, 0);"/>
					</g>
					<g>
						<path class="st10" d="M781.7,685c2.6,0.5,5.2,0.9,7.9,1l-0.4,2c-3-0.2-5.9-0.6-8.7-1.1L781.7,685z" style="fill: rgb(236, 145, 0);"/>
					</g>
					<g>
						<path class="st10" d="M827.2,652.8c1.6,1.5,2.9,3,3.9,4.6l-3.3,0.7c-0.9-1.5-2.1-2.9-3.6-4.2L827.2,652.8z" style="fill: rgb(236, 145, 0);"/>
					</g>
					<g>
						<path class="st10" d="M768,680c1.9,1.1,4.1,2.1,6.4,2.9l-1.9,1.7c-2.5-0.9-4.9-2-7-3.2L768,680z" style="fill: rgb(236, 145, 0);"/>
					</g>
					<g>
						<path class="st10" d="M814.6,645.5c2.5,0.9,4.9,2,7,3.2l-2.5,1.4c-1.9-1.1-4.1-2.1-6.4-2.9L814.6,645.5z" style="fill: rgb(236, 145, 0);"/>
					</g>
					<g>
						<path class="st10" d="M756,672.8l3.3-0.7c0.9,1.5,2.1,2.9,3.6,4.2l-3,1.1C758.3,676,757,674.4,756,672.8z" style="fill: rgb(236, 145, 0);"/>
					</g>
					<g>
						<path class="st10" d="M757.4,662.8c-0.3,1.6-0.3,3.2,0,4.7l-3.5,0.2c-0.4-1.7-0.4-3.5,0-5.2L757.4,662.8z" style="fill: rgb(236, 145, 0);"/>
					</g>
					<g>
						<path class="st10" d="M759.7,652.9l3,1.1c-1.4,1.3-2.6,2.8-3.5,4.2l-3.3-0.7C756.8,655.9,758.1,654.3,759.7,652.9z" style="fill: rgb(236, 145, 0);"/>
					</g>
					<g>
						<path class="st10" d="M767.8,650.2L767.8,650.2l-2.6-1.4l0,0c2.1-1.2,4.4-2.3,6.9-3.2l1.9,1.7&#10;&#9;&#9;&#9;&#9;&#9;&#9;&#9;C771.8,648.2,769.7,649.1,767.8,650.2z" style="fill: rgb(236, 145, 0);"/>
					</g>
					<g>
						<path class="st10" d="M789.3,644.2c-2.7,0.2-5.4,0.5-7.9,1.1l-1.2-1.9c2.8-0.6,5.7-1,8.7-1.2L789.3,644.2z" style="fill: rgb(236, 145, 0);"/>
					</g>
					<g>
						<path class="st10" d="M805.4,645.2c-2.6-0.5-5.2-0.9-7.9-1l0.4-2c3,0.2,5.9,0.6,8.7,1.1L805.4,645.2z" style="fill: rgb(236, 145, 0);"/>
					</g>
					<g>
						<path class="st10" d="M827.5,677.3l-3-1.1c1.4-1.3,2.6-2.8,3.5-4.3l3.3,0.7C830.3,674.3,829,675.9,827.5,677.3z" style="fill: rgb(236, 145, 0);"/>
					</g>
				</g>
			</g>
		</g>
	</g>
</g></g></svg>